<svg width="95" height="106" viewBox="0 0 95 106" fill="none" xmlns="http://www.w3.org/2000/svg">
<g clip-path="url(#clip0_557_362)">
<path d="M76.4851 89.0596C76.3209 89.0596 75.9565 90.3106 76.3321 91.1967C76.5326 91.6695 77.0022 91.8695 77.3961 91.7374C77.785 91.607 77.8973 91.235 77.9074 90.9465C77.9437 89.9734 77.0965 89.0596 76.4851 89.0596ZM73.667 74.8793L73.7905 76.2521L72.6132 76.12V77.6841L73.7905 77.5513L73.667 78.9849H75.2647L75.1419 77.5513L76.3192 77.6834V76.1194L75.1419 76.2521L75.2654 74.8793H73.667ZM74.4684 80.2899C74.1488 80.2899 73.8916 80.5558 73.8916 80.8841C73.8916 81.2125 74.1505 81.4784 74.4684 81.4784C74.788 81.4784 75.0452 81.2125 75.0452 80.8852C75.0452 80.5575 74.7863 80.2899 74.4684 80.2899ZM74.4684 82.6949C74.1488 82.6949 73.8916 82.9609 73.8916 83.2885C73.8916 83.6169 74.1505 83.8828 74.4684 83.8828C74.788 83.8828 75.0452 83.6169 75.0452 83.2885C75.0452 82.9609 74.7863 82.6949 74.4684 82.6949ZM74.4684 85.1338C74.1488 85.1338 73.8916 85.3997 73.8916 85.7274C73.8916 86.0558 74.1505 86.3217 74.4684 86.3217C74.788 86.3217 75.0452 86.0548 75.0452 85.7264C75.0452 85.3987 74.7863 85.1338 74.4684 85.1338ZM76.3304 85.7274C76.3304 86.0558 76.5896 86.3217 76.9072 86.3217C77.2268 86.3217 77.4843 86.0548 77.4843 85.7264C77.4843 85.3987 77.2251 85.1331 76.9072 85.1331C76.5896 85.1331 76.3304 85.3997 76.3304 85.7274ZM78.7485 85.7274C78.7485 86.0558 79.006 86.3217 79.3246 86.3217C79.6425 86.3217 79.9007 86.0548 79.9007 85.7264C79.9007 85.3987 79.6415 85.1331 79.3246 85.1331C79.005 85.1331 78.7485 85.3997 78.7485 85.7274ZM74.4695 88.3991C73.9771 88.3991 72.7594 90.9223 73.666 92.1986C73.8387 92.4419 74.1437 92.5809 74.4695 92.5809C74.7948 92.5809 75.0998 92.4419 75.2725 92.1986C76.1795 90.9213 74.9614 88.3991 74.4695 88.3991ZM72.4517 89.0596C71.8386 89.0596 70.9921 89.9744 71.0294 90.9465C71.0396 91.235 71.1529 91.607 71.5407 91.7374C71.9336 91.8695 72.4042 91.6695 72.6047 91.1984C72.9803 90.3106 72.6156 89.0596 72.4517 89.0596ZM71.5129 85.7274C71.5129 86.0558 71.7704 86.3217 72.089 86.3217C72.4086 86.3217 72.6661 86.0548 72.6661 85.7264C72.6661 85.3987 72.4069 85.1331 72.089 85.1331C71.7694 85.1331 71.5129 85.3997 71.5129 85.7274ZM69.1552 85.7274C69.1552 86.0558 69.4144 86.3217 69.7323 86.3217C70.0516 86.3217 70.3108 86.0548 70.3108 85.7264C70.3108 85.3987 70.0516 85.1331 69.7323 85.1331C69.4144 85.1331 69.1552 85.3997 69.1552 85.7274ZM68.5869 85.7274C68.5869 85.2216 68.6734 84.7655 68.6734 84.7655H73.4648V79.8147C71.1519 80.223 69.3021 82.0215 68.7511 84.3457C68.6171 84.5385 68.1828 84.6379 67.8761 84.603C66.1084 84.3856 62.5303 83.734 62.5303 82.967C62.5303 81.887 63.2557 81.4552 63.9519 81.4552C64.945 81.4552 66.0419 81.9972 66.9573 80.6626C63.7039 80.8128 66.1973 76.0733 63.5288 75.1738C63.6618 76.3842 63.5305 78.5139 63.1098 79.6399C63.1098 79.6399 62.1537 78.6088 61.0802 78.2203C61.1606 79.0996 60.9974 80.9207 60.6079 81.7494C60.6079 81.7494 59.4713 80.6879 58.2916 80.2899C59.3797 81.8815 59.3427 84.1511 59.0499 85.5318C58.9651 85.9315 59.2596 86.4268 60.0895 86.392C61.3869 86.333 65.8183 86.5309 67.7414 87.3218C68.3375 87.5693 68.8505 87.8516 69.0999 88.2817C69.3031 88.8606 69.8066 89.7573 70.4265 90.2167C70.7054 89.2159 71.8922 88.1445 72.6651 88.1837C72.8958 88.195 73.1513 88.5834 73.2039 88.9657C73.2731 88.6094 73.8431 87.6311 74.4674 87.6311C75.0445 87.6311 75.5989 88.4503 75.7906 89.1272C75.8486 88.6926 76.1034 88.2281 76.3348 88.2281C77.1104 88.2281 78.0879 88.923 78.455 90.07C78.7529 89.6945 80.1219 87.9212 80.2756 86.7579H68.6741C68.6741 86.7579 68.5869 86.2548 68.5869 85.7274ZM75.4703 79.8154V84.7662H80.2668C79.8488 82.2423 77.9179 80.2489 75.4703 79.8154ZM18.8845 83.8924C18.9847 83.9268 19.0866 83.9009 19.1868 83.8487C18.8638 84.3006 18.8759 84.6003 19.0166 84.7403C19.2351 84.9574 19.3967 84.5576 19.9494 83.9651C20.5021 83.3746 20.8856 83.1947 20.6662 82.9748C20.528 82.8356 20.2361 82.8305 19.8026 83.1875C19.8492 83.0834 19.8673 82.9789 19.8328 82.8782C19.6497 82.3447 18.799 81.6358 18.3301 81.633C18.2575 81.633 18.1919 81.6504 18.1332 81.6767C18.3404 81.3412 18.286 81.0893 18.1478 80.951C17.9958 80.7991 17.9086 80.905 17.7385 81.1248C17.7609 80.9719 17.7212 80.7913 17.5787 80.5715C16.874 79.4966 13.1482 75.9576 12.3036 75.6015C11.7983 75.3896 11.6334 75.6841 11.6334 75.6841C11.6334 75.6841 11.3527 75.8664 11.5729 76.3819C11.9443 77.2461 15.5223 80.9408 16.582 81.6368C16.798 81.7781 16.9733 81.8129 17.1201 81.7842C16.9145 81.9669 16.8161 82.0597 16.9672 82.2119C17.1054 82.3509 17.3515 82.397 17.6668 82.172C17.6461 82.2345 17.6322 82.3021 17.6348 82.3768C17.6495 82.8636 18.362 83.7193 18.8845 83.8924ZM9.93116 73.4224C9.82062 73.4224 9.66343 73.4484 9.54855 73.5726C9.43197 73.6969 9.39139 73.8897 9.4337 74.114C9.48032 74.3574 9.61766 74.6041 9.82235 74.809C10.0642 75.0523 10.3716 75.2001 10.6411 75.2001C10.7516 75.2001 10.9071 75.1738 11.0228 75.0506C11.2732 74.7813 11.1497 74.2164 10.7507 73.8143C10.5064 73.5709 10.2015 73.4224 9.93116 73.4224ZM21.5143 86.5572C21.5117 86.1834 20.8104 85.5561 19.9796 85.5561C18.7446 85.5561 18.2092 86.347 18.2092 86.7501C18.2092 87.5092 18.9346 87.6068 19.1574 87.6188C20.028 87.6737 21.4279 86.776 21.5143 86.5572ZM20.452 88.4513C20.1238 88.877 20.0003 89.2914 20.085 89.6849C20.1886 90.1611 20.655 90.3748 21.0695 90.3748C21.51 90.3748 21.9021 90.1662 22.1232 89.8146C22.5938 89.062 22.6155 87.3973 22.4557 87.2146C22.0601 87.2146 21.0082 87.7311 20.452 88.4513ZM9.61074 71.1208C9.26097 70.7705 8.54847 71.2928 8.12097 71.0494C8.31097 69.9807 9.05974 71.1034 9.78435 70.3299C10.0719 70.0206 9.91735 69.5376 9.75151 69.3915C9.43889 69.7131 8.95697 69.6001 8.91897 69.4236C9.74116 67.4602 8.13478 65.2705 6.59147 65.5443C6.89374 65.9525 6.9844 67.3776 6.85313 67.7599C7.44043 68.1873 7.0207 69.1908 6.37209 68.8979C5.93682 68.7201 5.16905 67.621 6.05255 66.8475C6.02663 66.5697 5.54128 66.5017 5.02482 67.1735C5.40309 65.9396 3.08767 66.327 2.6118 66.6233C2.34148 67.1247 2.0418 69.5342 3.21894 69.1041C2.58675 69.6602 2.66621 70.1589 2.93653 70.177C3.65594 69.2386 4.73809 69.9998 4.92548 70.4446C5.22778 71.1078 4.27086 71.5723 3.84163 70.9781C3.47459 71.1259 2.09966 71.0774 1.69548 70.7767C1.47957 72.3824 3.64213 73.9768 5.51105 73.0644C5.68378 73.0992 5.80467 73.5945 5.50671 73.9279C5.65355 74.0956 6.12251 74.241 6.41355 73.9314C7.13555 73.1582 6.02836 72.4161 7.05524 72.1851C7.30397 72.6196 6.82205 73.3753 7.17182 73.7266C7.73059 74.2867 8.43274 73.1999 9.12105 73.1565C9.14093 72.4414 10.1686 71.6819 9.61074 71.1208ZM3.82263 68.6409C3.82263 68.6409 3.46163 68.3818 3.89432 67.9067C4.33821 67.4428 4.60078 67.8094 4.60078 67.8094C4.60078 67.8094 5.00667 68.7242 5.12759 69.1458C4.71736 69.0355 3.82263 68.6409 3.82263 68.6409ZM7.39809 71.4239C7.17355 71.4525 6.6424 71.9304 6.37555 71.6628L5.15694 70.4394L5.76667 69.7878L6.37813 69.1362L7.59586 70.3596C7.86186 70.6262 7.41882 71.1921 7.39809 71.4239ZM27.5926 90.1655C27.6341 89.9829 27.6056 89.8355 27.5106 89.7399C27.4803 89.7102 27.4544 89.6928 27.438 89.6928C27.3689 89.6928 27.2152 89.8839 27.0684 90.0683C26.9458 90.2212 26.792 90.4113 26.5977 90.6192C26.4034 90.8277 26.2237 90.9926 26.0795 91.123C25.9085 91.2793 25.7315 91.4428 25.7297 91.5159C25.7297 91.5329 25.747 91.5592 25.7781 91.5913C25.8411 91.6548 25.9249 91.6869 26.0286 91.6869C26.184 91.6869 26.5243 91.6053 27.0347 91.0588C27.4233 90.6441 27.5537 90.3454 27.5926 90.1655ZM27.6013 91.6251C27.3335 91.9094 27.0641 92.1119 26.9155 92.216C27.0209 92.3238 27.3214 92.5157 27.6988 92.5157C27.9148 92.5157 28.1151 92.4515 28.2982 92.3245C28.6739 91.6992 28.312 91.0605 28.1488 90.897C28.0538 91.0551 27.8664 91.3418 27.6013 91.6251ZM23.4869 88.1455C23.2934 88.3278 22.846 89.5982 23.0412 90.3714C23.125 90.7035 23.3064 90.8448 23.613 90.8284C23.9299 90.8076 24.1026 90.6407 24.157 90.3021C24.278 89.5286 23.6976 88.3018 23.4869 88.1455ZM23.2425 84.616C23.2537 84.6379 25.5371 86.6641 26.3041 87.3983C26.4854 87.572 26.7333 87.6109 26.9863 87.4816C27.1306 87.4068 27.3102 87.3218 27.4959 87.2358C29.7793 86.4224 33.5362 86.3302 34.9145 86.3927C35.7437 86.4275 36.0372 85.9322 35.9534 85.5325C35.6833 84.2252 35.6236 81.8815 36.711 80.2909C35.532 80.6879 34.3964 81.7505 34.3964 81.7505C34.0052 80.9207 33.8419 79.1003 33.9231 78.2203C32.8496 78.6088 31.8936 79.6393 31.8936 79.6393C31.4721 78.5139 31.3408 76.3842 31.4738 75.1732C28.8052 76.0733 31.3011 80.8121 28.0469 80.6626C28.9606 81.9972 30.0592 81.4552 31.0524 81.4552C31.7484 81.4552 32.6138 81.9157 32.4739 82.967C32.372 83.7282 28.0071 84.6768 26.2514 84.6768C25.025 84.6768 24.2028 84.2945 23.587 83.4343C23.2908 83.0216 22.9885 82.8349 22.65 82.8871C22.2303 82.952 21.7388 83.3858 21.7388 84.39C21.7388 85.099 22.0238 86.6579 22.8702 86.6579C23.4635 86.6579 23.4877 85.4267 23.2425 84.616ZM26.0648 90.084C26.4638 89.6562 26.6038 89.3453 26.5053 89.1019C26.3619 88.7527 25.456 87.7345 24.2685 86.5859C24.2339 86.8378 24.1674 87.1054 24.1113 87.287C24.911 88.354 25.2081 89.4982 24.9404 90.4601C25.0371 90.5253 25.0976 90.5557 25.133 90.5697C25.4396 90.6912 25.8248 90.3447 26.0648 90.084ZM20.2905 84.2849C20.2845 84.2911 20.1368 84.4378 20.0418 84.6362C20.2896 84.6362 20.579 84.6795 20.839 84.7508C20.8216 84.5187 20.8044 84.2033 20.8277 83.9323C20.6075 83.9825 20.3717 84.1955 20.2905 84.2849ZM60.1794 91.6094C60.9309 91.2619 61.4724 90.327 61.6149 89.4112C61.1382 89.646 60.6018 89.7607 59.9826 89.7607C58.2787 89.7607 56.1395 88.8073 54.1988 87.9448C54.1988 87.9448 53.7808 88.2974 53.0873 88.3704C55.0443 88.977 58.8908 91.1247 59.1734 92.502C59.3634 93.423 58.7656 93.7756 58.7656 93.7756C57.9106 92.3699 55.7042 90.1874 52.7609 89.0968C52.7667 89.6095 52.6693 89.971 52.6693 89.971C52.6693 89.971 52.0715 90.1184 50.8039 89.8979C51.9127 90.8294 54.8265 94.1189 55.1427 96.6141C55.3534 98.2809 54.1961 98.3574 54.1961 98.3574C54.0322 95.8512 52.7246 93.2571 50.3669 90.6547C50.3669 90.6547 49.9808 91.2629 49.4668 91.5722C49.4668 91.5722 48.5945 91.4159 47.8735 90.9353C48.1524 94.2422 48.3166 98.5379 48.1439 99.8378C48.0228 100.741 47.502 101.122 47.502 101.122C47.502 101.122 46.9788 100.742 46.8577 99.8378C46.685 98.5369 46.8492 94.2422 47.1281 90.9353C46.4061 91.4165 45.5348 91.5722 45.5348 91.5722C45.0208 91.2636 44.6347 90.6547 44.6347 90.6547C42.277 93.2577 40.9704 95.8506 40.8055 98.3574C40.8055 98.3574 39.6482 98.2809 39.8589 96.6141C40.1751 94.1189 43.0889 90.8294 44.1987 89.8979C42.9291 90.1195 42.3333 89.9716 42.3333 89.9716C42.3333 89.9716 42.2346 89.6119 42.2407 89.0985C39.2974 90.1898 37.0917 92.3716 36.236 93.7766C36.236 93.7766 35.6399 93.4236 35.8282 92.502C36.1108 91.1247 39.9566 88.977 41.9143 88.3714C41.2208 88.2967 40.8028 87.9431 40.8028 87.9431C38.8631 88.8067 36.7229 89.759 35.019 89.759C34.3998 89.759 33.8618 89.646 33.3868 89.4095C33.5293 90.3263 34.0717 91.2619 34.8229 91.6077C32.1906 93.4707 33.816 97.8375 30.2863 97.0156C32.2554 100.691 36.235 101.06 36.235 101.06C35.3542 99.1158 36.4528 93.183 41.7365 90.4861C38.4841 93.7486 37.0018 97.7037 37.8646 100.496C38.6568 103.055 41.2303 104.093 43.1676 104.138C41.7976 99.904 42.6424 95.0539 45.4863 91.9996C44.2669 95.3491 42.5542 104.285 47.5013 106C52.4481 104.285 50.7337 95.3491 49.5136 92.0006C52.3582 95.0539 53.203 99.904 51.8323 104.139C53.7703 104.094 56.3441 103.055 57.135 100.495C57.9988 97.7037 56.5168 93.7486 53.2644 90.4871C58.5481 93.183 59.6467 99.1148 58.7656 101.061C58.7656 101.061 62.7471 100.691 64.7143 97.0149C61.1857 97.8351 62.8109 93.4697 60.1804 91.606L60.1794 91.6094ZM47.921 17.9552C47.921 17.692 47.7154 17.4774 47.4633 17.4774C47.2092 17.4774 47.0056 17.692 47.0056 17.9552C47.0056 18.2176 47.2092 18.4314 47.4633 18.4314C47.7154 18.4314 47.921 18.2194 47.921 17.9552ZM50.2339 17.9552C50.2339 17.692 50.029 17.4774 49.7762 17.4774C49.5231 17.4774 49.3182 17.692 49.3182 17.9552C49.3182 18.2176 49.5231 18.4314 49.7762 18.4314C50.029 18.4314 50.2339 18.2194 50.2339 17.9552ZM46.6409 5.59294C46.6409 6.08471 47.0253 6.48612 47.4986 6.48612C47.9719 6.48612 48.357 6.08471 48.357 5.59294C48.357 5.10113 47.9729 4.70061 47.4996 4.70061C47.0263 4.70061 46.6409 5.10117 46.6409 5.59294ZM46.9174 3.69706H48.0849L47.959 2.27645L49.2286 2.41112V1.28593L47.959 1.42234L48.0849 0H46.9164L47.0426 1.42234L45.774 1.28593V2.41112L47.0436 2.27558L46.9174 3.69706ZM45.6081 17.9552C45.6081 17.692 45.4025 17.4774 45.1504 17.4774C44.8966 17.4774 44.691 17.692 44.691 17.9552C44.691 18.2176 44.8966 18.4314 45.1487 18.4314C45.4025 18.4314 45.6081 18.2194 45.6081 17.9552ZM42.8548 19.7191C42.9793 19.7651 43.1225 19.7886 43.2918 19.7886H51.7098C51.8798 19.7886 52.0233 19.7651 52.1468 19.7191C52.4172 19.6217 52.5828 19.415 52.6476 19.0874H42.354C42.4178 19.415 42.5827 19.6209 42.8548 19.7191ZM43.3179 17.9552C43.3179 17.692 43.1123 17.4774 42.8599 17.4774C42.6071 17.4774 42.4005 17.692 42.4005 17.9552C42.4005 18.2176 42.6078 18.4314 42.8582 18.4314C43.1123 18.4314 43.3179 18.2194 43.3179 17.9552ZM52.5241 17.9552C52.5241 17.692 52.3185 17.4774 52.0664 17.4774C51.8133 17.4774 51.6087 17.692 51.6087 17.9552C51.6087 18.2176 51.8133 18.4314 52.0664 18.4314C52.3185 18.4314 52.5241 18.2194 52.5241 17.9552ZM53.0751 16.8257C53.3126 16.5277 54.4916 14.2278 54.4916 11.9053C54.4916 9.81567 51.8869 8.66439 50.3374 8.61227C50.1579 11.5977 49.0047 16.2844 47.5013 16.2844C46.0787 16.2844 44.8413 11.6246 44.6649 8.61227C43.1157 8.66439 40.511 9.81567 40.511 11.9053C40.511 14.2278 41.6897 16.5277 41.9272 16.8249L53.0751 16.8257ZM47.5013 14.8013C48.2094 14.8013 49.1248 11.828 49.3582 9.01454C49.3582 8.44457 48.6498 7.57224 47.5013 7.55049C46.3525 7.57394 45.6444 8.44546 45.6444 9.01543C45.85 11.6394 46.8044 14.8013 47.5013 14.8013ZM24.9965 29.9787C23.6233 31.8833 25.5233 33.9668 25.6399 34.1119C25.7228 34.2136 25.7936 34.1675 25.7807 34.0537C25.7703 33.9555 26.7696 31.0187 32.5171 32.5654C32.6406 32.5984 32.7157 32.6001 32.6009 32.481C31.5386 31.6322 30.2794 29.7302 29.8718 28.2001C29.8718 28.2001 26.3706 28.0741 24.9965 29.9787ZM28.0797 29.5808C28.0797 29.049 28.8466 28.903 29.2888 28.903C29.2888 28.903 29.4814 29.4157 29.6757 29.6998C29.2266 29.4982 28.6065 29.4774 28.0797 29.5808ZM31.1301 27.0958C30.7475 27.0958 30.605 27.3408 30.7294 27.7648C32.0507 32.2543 35.6521 33.3187 37.0727 35.2632C37.0727 35.2632 37.0642 34.6567 37.7221 33.2126C38.1713 33.9547 39.3873 35.3465 40.1775 35.5237C39.9875 35.1243 39.7629 33.5428 39.9393 32.481C41.8047 34.1267 44.1054 34.4509 45.3394 33.5011C44.2886 33.542 42.9213 32.3629 42.2305 31.3159C43.1934 31.5401 44.5173 31.3089 44.7904 31.0292C44.1841 30.8814 43.4465 30.3376 43.0024 29.8214C43.6847 29.7737 45.166 29.2098 45.5901 28.4139C44.9957 28.5503 44.1159 28.3061 43.5432 28.0003C43.9792 27.7622 45.0683 26.584 45.3309 25.55C43.7824 26.3164 41.3409 27.0775 37.7241 27.0775L31.1301 27.0958ZM35.1228 29.1411C34.1002 29.5495 33.588 30.1004 33.588 30.1004L32.9403 29.0273C32.7848 28.7666 32.7347 28.4451 33.2633 28.4451H36.4328C36.4328 28.6641 36.1451 28.7327 35.1228 29.1411ZM24.3013 36.4439C24.632 36.887 25.5682 38.2373 27.622 37.0297C29.6748 35.82 30.7345 35.1615 30.7345 35.1615C30.7345 35.1615 30.4133 35.7872 30.6568 36.5344C30.6715 36.5777 30.719 36.575 30.738 36.531C30.9427 36.047 32.7261 34.6454 35 34.4526C34.1667 33.7183 33.2512 33.0623 33.2512 33.0623C32.2796 33.2213 30.3969 33.8912 27.9605 35.4865C25.5251 37.0809 24.4023 36.4163 24.3548 36.3849C24.3073 36.3552 24.2434 36.3654 24.3013 36.4439ZM53.4015 87.3652C53.753 87.2522 54.0458 87.0733 54.1961 86.8699C52.6242 86.802 51.3247 85.4328 50.8487 84.5873C50.3262 85.4598 49.3935 86.1401 49.3935 86.1401C48.7285 85.9636 47.8216 85.2338 47.502 84.6761C47.1824 85.2338 46.2741 85.9636 45.6108 86.1401C45.6108 86.1401 44.6764 85.4598 44.1539 84.5873C43.6789 85.4328 42.3791 86.803 40.8055 86.8706C40.9565 87.074 41.2503 87.2529 41.6001 87.3659C41.8356 87.4423 42.0958 87.4894 42.3581 87.4894C42.6346 87.4894 42.9135 87.4389 43.1632 87.3208C43.0061 87.897 42.9532 88.6066 43.0682 89.0934C43.0682 89.0934 43.9059 89.161 44.7694 88.8326C44.8318 89.3583 45.07 89.9952 45.4605 90.4263C45.5382 90.5103 45.6186 90.5912 45.7065 90.6564C46.1713 90.6564 47.2923 90.1109 47.503 89.7754C47.7137 90.1109 48.833 90.6564 49.2992 90.6564C49.3857 90.5905 49.4668 90.5103 49.5438 90.4263C49.935 89.9952 50.1742 89.3576 50.2346 88.8319C50.6234 89.0289 51.0757 89.1074 51.5751 89.1074C51.6925 89.1074 51.8133 89.1029 51.9361 89.0941C52.0518 88.6077 51.9992 87.8953 51.8411 87.3198C52.0915 87.4382 52.3697 87.4884 52.6469 87.4884C52.9092 87.4884 53.1667 87.4399 53.4015 87.3652ZM37.6963 53.5513C37.3879 53.5513 37.1972 53.7492 37.1972 54.0691V73.4545C37.1972 75.3053 37.9192 76.2436 39.3449 76.2436L42.9118 76.2556C45.356 76.2556 46.7983 77.1038 47.5003 78.1551C48.0981 77.1751 49.7762 76.2556 52.0888 76.2556L55.6557 76.2426C57.0807 76.2426 57.8037 75.3042 57.8037 73.4535V54.0701C57.8037 53.7503 57.612 53.5519 57.3043 53.5519L37.6963 53.5513ZM41.1801 71.6898C41.1475 72.1192 41.6422 72.8991 42.4585 72.6544C42.4341 72.8142 42.4799 73.247 42.6621 73.5719C41.2157 73.902 40.5901 72.7029 41.1801 71.6898ZM54.2989 65.2722C54.1004 65.0585 53.9033 64.8432 53.7116 64.6257C53.5043 64.3946 53.3577 64.3045 53.146 64.3045C52.6727 64.3045 52.1658 64.565 51.8937 64.7476C51.8764 64.7544 51.8635 64.7718 51.8567 64.8186C52.1441 64.7926 52.4335 64.7718 52.7202 64.7387C52.9723 64.71 53.2074 64.7196 53.4249 64.8831C53.5959 65.0108 53.6926 65.1698 53.7014 65.3756C53.7289 66.0361 54.2514 67.4261 54.2843 67.8415C54.3251 68.0067 54.1289 68.0535 53.8585 68.8208C53.658 69.0468 53.1175 68.33 53.1962 68.163C53.5104 67.7487 53.5976 67.4906 53.5182 67.1814C53.4534 66.9346 53.3333 66.4915 53.2454 66.2515C53.126 65.93 52.8583 65.8102 52.5258 65.9249C51.2219 66.3611 51.0207 65.7798 49.7277 66.327L51.2165 68.6471C51.2124 68.4801 51.132 68.176 50.8911 67.9579C50.9342 67.7234 51.4041 67.6278 51.5802 67.8449C51.796 68.1248 52.2157 68.5211 52.5621 68.5836C53.2271 68.7088 53.1752 69.7254 54.951 70.065C54.7308 70.2954 54.2385 70.2169 54.0234 70.1138C54.153 70.3152 54.3016 70.5046 54.5693 70.5743C54.2928 70.8521 53.5043 70.2005 53.5847 70.8566C53.7211 70.7767 53.9104 70.7637 54.0702 70.8043C54.4241 70.8931 55.0063 72.9227 53.7815 73.8109C54.0424 73.889 54.3223 73.7498 54.5866 73.7498C54.742 73.7498 54.8862 73.901 54.9018 74.0696C55.0158 74.1584 55.0918 74.2669 55.1573 74.4058C55.0661 74.4362 54.8879 74.4075 54.7885 74.3417C54.8285 74.4529 54.819 74.724 54.7773 74.7291C54.667 74.7438 54.5816 74.6806 54.4682 74.6117C54.3111 74.6943 53.793 74.6615 53.6461 74.5294C53.2556 74.625 52.8688 74.7533 52.4627 74.7533C52.2425 74.7533 51.9534 74.7397 51.9619 74.4683C51.968 74.3365 52.0328 74.2686 52.0827 74.1242C51.8964 73.929 51.5846 74.1157 51.2107 74.1529C50.7072 74.2017 50.4989 74.1235 50.39 74.0191C50.865 73.5736 50.5783 72.4899 49.8417 72.3943C50.448 72.9794 50.3686 73.9256 49.6907 74.1382C49.8865 74.2017 49.9842 74.2911 50.0585 74.4311C50.296 74.5311 50.3004 74.7055 50.2814 74.7837C50.1518 74.6902 49.916 74.598 49.7287 74.6233C49.7155 74.7055 49.6812 74.8601 49.6103 74.9185C49.5309 74.9011 49.4247 74.8274 49.384 74.7673C49.1682 74.6021 47.8182 74.9202 47.7361 74.6977C47.6842 74.4895 48.0445 74.3154 48.377 74.241C47.522 73.9245 46.781 72.3032 45.4666 72.0277C44.8559 71.9 44.0294 72.1772 44.0294 72.9773C44.0294 73.3702 44.3429 73.6726 44.6815 73.6726C44.994 73.6726 45.1494 73.4552 45.1494 73.2354C45.0995 73.2736 45.0683 73.2965 45.0374 73.3224C44.8474 73.4804 44.6038 73.4702 44.4274 73.2965C44.272 73.1453 44.272 72.8793 44.4223 72.7012C44.5458 72.5534 44.6944 72.4684 44.8929 72.4387C45.4069 72.3632 45.8283 72.5291 46.1126 72.9463C46.2473 73.1459 46.3223 73.3579 46.3223 73.5631C46.3223 74.4857 45.4069 74.6953 44.899 74.6953C43.6236 74.6953 42.8721 73.7743 42.8721 72.708C42.8721 72.5837 42.8782 72.4578 42.8979 72.3312C43.0984 71.132 44.1607 70.6299 45.0795 70.4804C44.9631 70.0633 44.7358 69.7243 44.4111 69.4489C44.2496 69.3117 44.2333 69.1997 44.3351 69.0249C44.4732 68.786 44.6201 68.5505 44.6805 68.2811C44.6954 68.2204 44.7012 68.1569 44.7066 68.0917C44.2489 68.5054 43.6097 68.8843 42.7235 69.1543C42.4446 69.2847 42.297 69.5427 42.2614 69.8373C42.221 70.1797 42.2115 70.5272 42.2054 70.8712C42.2037 70.9521 42.2607 71.0392 42.3048 71.1146C42.4687 71.4013 42.6502 71.6775 42.6916 72.0332C42.6916 72.2052 41.8332 72.2243 41.8332 72.0851C41.8244 71.4597 41.4101 71.2163 41.4556 70.8043C41.5679 70.1616 41.594 69.5185 41.4902 68.8737C41.4644 68.7112 41.5506 68.6044 41.6646 68.5177C41.8461 68.3784 42.0412 68.2518 42.2234 68.1125C42.6526 67.7824 42.8307 67.3479 42.7296 66.8137C42.7167 66.7441 42.6865 66.6772 42.6563 66.6113C42.4429 66.1351 42.2865 65.6521 42.2865 65.1152C42.2865 64.5261 41.5628 64.5588 41.6096 65.1384C41.6249 65.3183 41.7589 65.5712 41.8339 65.745C42.5766 67.4681 41.2415 68.7078 39.8606 68.7078C41.3114 68.2002 39.5213 66.327 39.5213 64.9282C39.5213 64.0714 40.1775 63.4382 40.9616 63.4382C41.8661 63.4382 42.4385 64.0253 42.6027 64.1263C43.0404 63.4269 44.3799 63.301 44.8827 63.2201C44.8447 62.8439 44.8973 62.5094 45.1263 62.221C45.1409 62.1998 45.1504 62.1643 45.1436 62.1425C45.071 61.9653 44.995 61.7888 44.8966 61.6168C44.4837 62.0861 44.3853 62.7084 44.3853 63.0306C42.8582 63.0081 42.1847 62.3336 41.7338 62.0681C41.7355 61.9506 42.1416 61.2137 42.5026 60.7273C42.107 61.0679 41.7823 61.4526 41.5438 61.9131C41.3253 61.7544 41.0966 61.611 40.872 61.5161C41.2157 60.774 41.6717 60.1955 42.2536 59.5906C41.4349 59.8947 40.7224 60.829 40.4523 61.4154C40.2189 61.3874 39.8735 61.3789 39.6818 61.4154C40.5741 60.317 40.9806 58.1501 42.9413 57.6644C42.4507 59.6732 43.6718 60.49 44.5129 59.9654C44.4033 59.9654 44.3283 59.9825 44.2574 59.9654C42.6183 59.5466 43.5897 57.2569 43.1924 56.78C43.0431 56.5974 42.9654 56.4325 42.9895 56.2048C42.9983 56.124 42.9749 56.0311 42.9379 55.9564L42.0656 54.4879C41.9567 54.3036 42.296 54.1725 42.3676 54.2575L43.2572 55.7259C43.2816 55.7608 43.3091 55.8154 43.3437 55.8215C43.6674 55.8799 43.7685 56.1516 43.8998 56.3916C43.9405 56.4697 43.9734 56.5585 43.9809 56.6452C43.987 56.7131 43.969 56.806 43.9249 56.8513C43.7824 56.9964 43.8099 57.1381 43.9198 57.3248C44.0949 57.6255 49.3623 66.4628 49.3623 66.4628C48.2179 66.9346 46.1496 66.9728 45.5494 66.9144C45.4259 67.2203 45.2315 67.5445 44.9448 67.8562C45.2298 67.6678 45.4527 67.4288 45.6583 67.1701C45.8897 67.196 46.2368 67.2899 46.591 67.3158C46.381 67.7678 46.0658 68.2177 45.6617 68.5931C45.4717 68.7843 45.2349 68.9495 45.3224 69.2536C45.4198 69.5939 46.0478 70.2439 46.2782 70.6637C46.5055 70.7115 46.8899 70.7941 47.1722 70.9071C47.332 71.2546 47.8759 71.6915 48.5317 71.4655C47.2136 71.4481 47.3103 70.0885 47.7198 69.369C47.6764 70.038 47.996 70.5924 48.4021 70.6548C47.7931 70.0964 47.8545 68.8259 48.4469 68.1292C48.5317 69.2605 48.8717 69.8558 49.3589 69.9885C48.7156 69.3925 48.3285 68.0118 49.3012 67.0056C49.3762 69.5881 51.7237 69.1222 51.9368 72.1113C52.8067 72.1113 52.8559 70.932 52.3714 70.7149C52.0881 70.607 51.8323 70.4196 51.6891 70.164C51.6287 70.0571 51.5656 69.8653 51.5164 69.7523C51.2572 68.984 50.5284 69.0328 50.5457 68.8485C50.5627 68.7877 50.6777 68.7583 50.8392 68.7583L49.4644 66.6181L49.3918 66.5069C49.5584 66.4724 49.5947 66.3768 49.4247 66.1054C49.4247 66.1054 44.2652 57.4637 44.2411 57.4142C44.7202 57.3299 45.1823 57.461 45.6298 57.6357C45.5087 57.5228 45.412 57.3681 45.3913 57.2067C45.374 57.0763 45.3794 57.0015 45.4829 56.92C45.5925 56.8285 45.6987 56.7244 45.7747 56.6069C46.0305 56.2144 46.5004 56.0233 46.9286 56.1465C47.5746 56.3308 47.8026 57.065 47.3286 57.4514C47.0762 58.0129 46.7637 57.9416 46.6979 58.1935C46.8258 58.2508 47.7086 58.9383 47.7673 59.2274C47.5037 59.7783 47.3734 60.6413 47.6014 61.1219C47.7724 58.8298 49.1431 57.7071 50.4772 57.7071C50.7944 57.7071 51.1096 57.7634 51.4255 57.872C51.5982 57.9314 51.7712 58.0153 51.9154 58.1259C52.1244 58.2857 52.3212 58.4673 52.4956 58.6618C52.7565 58.9485 52.9947 59.2571 53.4371 59.2769C53.3075 59.4623 53.1606 59.5985 53.0096 59.7323C52.9007 59.8306 52.8454 59.9497 52.8332 60.0972C52.8023 60.4146 52.6985 60.7054 52.4654 60.9403C52.4352 60.9713 52.4094 61.013 52.3945 61.0529C52.2479 61.4857 52.0966 61.9168 51.9575 62.3527C51.9232 62.4589 51.93 62.605 51.7875 62.6033C51.664 62.6012 51.5154 62.5651 51.4231 62.4903C51.2277 62.3302 51.1578 62.0974 51.2277 61.8523C51.2969 61.6093 51.2277 61.399 51.1517 61.172C51.074 60.9444 51.0455 60.6993 50.9929 60.4405C50.6285 60.3119 49.9445 61.1007 50.466 61.7612C50.8056 62.2476 51.1103 63.1453 51.1632 63.513C51.1734 63.5474 50.8538 63.7519 50.4134 63.6952C48.9253 63.5041 47.9848 62.4616 47.6981 61.584C47.6757 63.0723 48.9012 64.1731 50.7167 64.0673C50.7907 64.4148 51.0723 64.6493 51.3987 64.6599C51.4679 64.4363 51.4652 63.9673 51.4102 63.6693C51.3858 63.5389 51.4533 63.4693 51.5741 63.4389C51.9714 63.3365 52.4895 63.3764 52.9302 63.2174C53.3231 63.0757 53.5087 63.1583 53.7523 63.6362C53.9372 63.9966 54.2531 64.3834 54.551 64.6527C54.6765 64.7633 54.8017 64.877 54.9198 64.9961C55.0701 65.148 55.1488 65.3262 55.1617 65.5487C55.122 65.8962 55.1678 66.5912 55.1678 66.6035C55.0813 66.8318 54.4536 66.5905 54.3525 66.3444C54.3145 66.2532 54.6202 65.6102 54.2989 65.2654V65.2722ZM65.1306 28.201C64.7248 29.7302 63.464 31.633 62.4017 32.4819C62.2867 32.6018 62.362 32.5992 62.4855 32.5662C68.233 31.0196 69.2305 33.9564 69.2217 34.0546C69.2088 34.1675 69.2797 34.2143 69.3625 34.1128C69.4799 33.9686 71.3792 31.8841 70.0051 29.9796C68.632 28.075 65.1306 28.201 65.1306 28.201ZM65.3277 29.7006C65.5221 29.4166 65.7162 28.903 65.7162 28.903C66.1566 28.903 66.9254 29.0507 66.9254 29.5808C66.3968 29.4782 65.7749 29.4991 65.3277 29.7006ZM70.702 36.4456C70.7607 36.3675 70.6935 36.3589 70.6477 36.3876C70.6019 36.418 69.4792 37.0826 67.0428 35.4892C64.6074 33.8939 62.723 33.2239 61.7513 33.0649C61.7513 33.0649 60.8359 33.7209 60.0016 34.4553C62.2765 34.6488 64.0608 36.0494 64.2644 36.5334C64.2834 36.5771 64.3309 36.5795 64.3448 36.5361C64.5884 35.7889 64.2671 35.1632 64.2671 35.1632C64.2671 35.1632 65.3267 35.822 67.3804 37.0314C69.4341 38.2391 70.3712 36.8877 70.702 36.4456ZM51.4618 28.0003C50.8884 28.307 50.0083 28.5512 49.4152 28.4156C49.8383 29.2106 51.3186 29.7745 52.0009 29.8232C51.5561 30.3384 50.8192 30.8815 50.2132 31.0309C50.485 31.3089 51.8092 31.5409 52.7711 31.3176C52.082 32.3629 50.713 33.542 49.6622 33.502C50.8972 34.4515 53.1979 34.1276 55.0633 32.4819C55.2377 33.5446 55.0141 35.1233 54.8248 35.5247C55.615 35.3476 56.831 33.9555 57.2795 33.2135C57.9391 34.6577 57.9289 35.2639 57.9289 35.2639C59.3512 33.3195 62.9517 32.2551 64.2722 27.7657C64.3967 27.3417 64.2532 27.0967 63.8715 27.0967L57.2785 27.0793C53.6597 27.0793 51.2192 26.3173 49.6717 25.5518C49.9333 26.5857 51.0255 27.7614 51.4618 28.0003ZM61.7391 28.4486C62.2677 28.4486 62.2185 28.7701 62.0621 29.0308L61.4144 30.103C61.4144 30.103 60.9014 29.5512 59.8798 29.1429C58.8572 28.7345 58.5688 28.6667 58.5688 28.4478L61.7391 28.4486ZM38.0875 35.1721C37.8802 35.7592 37.8198 36.4074 37.9304 37.2502C38.5954 38.7029 38.915 41.3999 38.7111 42.9083C39.77 41.4227 40.2396 39.7509 40.5419 38.4128C41.1499 39.0385 41.9377 39.9335 42.4877 40.6581C42.5827 39.8727 42.7496 38.903 42.8962 38.2036C43.6874 38.9627 45.3282 39.9178 46.4373 40.2557C45.6909 37.0843 44.4128 35.0615 44.4128 35.0615C43.3281 35.1711 41.5801 34.9052 40.7943 34.1276C40.9351 35.2772 41.7209 36.5986 41.7209 36.5986C40.0367 36.7638 38.8451 36.1859 38.0875 35.1721ZM56.9148 35.1721C56.1575 36.1859 54.9649 36.7645 53.2817 36.5996C53.2817 36.5996 54.0675 35.2789 54.2073 34.1293C53.4215 34.9069 51.6742 35.1721 50.5888 35.0632C50.5888 35.0632 49.3107 37.0853 48.5636 40.2567C49.6741 39.9178 51.3152 38.962 52.1061 38.2036C52.253 38.903 52.4196 39.8717 52.5146 40.6581C53.0639 39.9335 53.8517 39.0385 54.4597 38.4128C54.762 39.7509 55.2326 41.4217 56.2905 42.9083C56.0859 41.3999 56.4079 38.7029 57.0722 37.2502C57.1818 36.4074 57.1204 35.7592 56.9148 35.1721ZM42.4341 45.1638C43.0699 46.1909 43.6348 47.4273 43.8309 48.5264C44.4396 47.7864 45.0829 46.4968 45.5192 44.9573C46.0546 45.6298 46.9873 46.9989 47.5013 48.1287C48.015 46.9989 48.9487 45.6298 49.4834 44.9573C49.9194 46.4968 50.5627 47.7864 51.1717 48.5284C51.3678 47.4273 51.9317 46.1909 52.5682 45.1638C53.0517 47.1624 54.9147 49.1087 56.8381 49.2565C55.5875 47.6211 55.5366 44.7955 55.6245 43.8545C54.7912 42.5512 54.2429 41.375 53.9803 40.5762C53.4164 41.1384 52.5424 42.2307 51.758 43.494C51.758 43.4783 51.7349 41.9102 51.4214 40.0065C50.6139 40.7414 49.1499 41.2732 48.3675 41.4801C47.8752 42.2908 47.7388 42.9222 47.5037 43.9405C47.2689 42.924 47.1325 42.2897 46.6402 41.4801C45.8568 41.2732 44.3931 40.7414 43.5829 40.0065C43.2721 41.9091 43.2487 43.4783 43.2487 43.494C42.4646 42.2307 41.5906 41.1394 41.0247 40.5762C40.7631 41.3756 40.2131 42.5512 39.3805 43.8545C39.4694 44.7955 39.4175 47.6212 38.1662 49.2555C40.0903 49.1077 41.9513 47.162 42.4341 45.1638ZM25.006 68.8164C26.0856 68.1074 26.7696 66.8199 27.5477 65.2453C27.0943 65.434 26.4388 65.6381 25.7816 65.7754C25.1407 67.023 24.2322 66.54 24.2097 66.3618C24.4049 66.143 24.6295 65.8197 24.797 65.5381C24.525 65.023 24.195 64.2557 24.0137 63.783C23.0965 65.7259 21.4107 67.6998 19.9995 68.4706C20.8286 69.6322 23.3996 69.8701 25.006 68.8164ZM28.3431 65.5409C27.5779 67.1656 27.7576 69.6714 30.1956 69.7428C29.9935 67.9685 30.7872 66.2993 31.6379 65.5398C30.9064 65.7225 29.7172 66.6867 29.7172 66.6867C29.7172 66.6867 29.5384 67.0987 29.5013 67.634C28.9917 67.7251 28.7102 67.3298 28.9226 66.5045C28.9226 66.5045 28.5521 66.0815 28.3431 65.5409ZM16.278 67.3967C16.6322 67.3967 16.9914 67.3534 17.3429 67.2663C19.6972 66.6799 21.9375 64.6544 23.271 62.9542C22.511 63.1976 21.7423 63.3539 20.889 63.4406C20.889 63.4406 20.2931 64.1444 19.8328 64.4035C19.5996 64.5363 19.3664 64.5998 19.1462 64.5998C18.4812 64.5998 18.1979 64.0489 18.1979 64.0489C18.1979 64.0489 19.2723 63.531 19.9554 62.7961C19.8198 62.2531 19.7335 61.5014 19.7179 60.7542C17.8646 62.6265 14.3806 64.4469 11.9486 64.8005C12.4297 65.8102 14.1388 67.3967 16.278 67.3967ZM11.5652 63.4232C11.6861 63.4232 11.8096 63.4174 11.9305 63.4061C14.3487 63.1644 17.2695 61.6055 19.1505 60.2562C18.5512 60.3781 16.9767 60.4146 16.2314 60.3084C15.9723 60.4822 14.834 61.2079 13.8866 61.3284C12.1593 61.5492 11.9763 60.4737 11.9763 60.4737C13.086 60.3371 14.366 59.961 15.5888 59.3875C15.7098 58.4594 15.924 57.634 16.107 57.0241C13.4384 58.5185 9.08824 59.5698 6.50767 59.6046C7.02413 60.8386 9.0269 63.4232 11.5652 63.4232ZM11.9452 54.6565C12.3165 53.9943 12.9055 53.2116 13.441 52.5737C11.3121 53.1645 8.57005 53.286 7.11913 53.286C5.40482 53.286 3.73971 53.1645 2.78539 52.9734C2.87003 54.7043 4.50663 57.6914 7.73663 57.9832C7.90505 57.9989 8.09074 58.0058 8.29109 58.0058C10.3051 58.0058 13.5101 57.1859 15.715 56.3984C14.1431 56.1953 12.6231 55.8191 12.2777 55.673C11.4572 55.9103 9.49847 56.2403 8.86282 56.2055C7.41882 56.1257 7.26509 55.0102 7.26509 55.0102C7.26509 55.0102 9.86378 55.1214 11.9452 54.6565ZM4.1914 51.4807C5.39186 51.8715 7.30482 52.0951 9.44232 52.0951C10.7464 52.0951 12.1214 51.9767 13.2398 51.8169C12.0307 51.4025 10.54 50.7768 9.57101 50.1573C8.3602 50.1331 6.71582 50.0983 5.66044 49.7726C4.10848 49.2947 4.13009 48.226 4.15771 47.9871C5.49982 48.5301 7.78328 49.0486 9.47082 49.1514C10.0927 48.5475 11.0539 47.8287 12.0678 47.2033C8.06309 47.2378 2.95121 45.6427 0.078741 44.1125C-0.577627 49.4893 3.05226 51.109 4.1914 51.4807ZM12.9945 40.3332C12.3761 39.1402 11.7733 37.5352 11.6939 36.1521C9.81974 34.6714 7.68224 32.7878 6.44551 30.6347C5.7304 29.3887 5.99467 28.2974 6.50078 27.9238C6.88682 29.2749 9.40262 33.0615 11.6826 34.9618C11.6999 33.747 11.9029 32.3516 12.2181 31.3011C9.5667 28.3991 6.59578 23.5916 5.87894 21.7088C5.07144 22.3804 3.68098 24.0721 3.33985 26.4546C2.99439 28.8527 3.76736 31.3168 5.63713 33.7792C7.07251 35.6715 10.2369 38.4937 12.9945 40.3332ZM12.2319 46.4326C10.4096 45.2161 9.14697 44.0893 8.47505 43.0762C6.95159 42.4802 4.98248 41.5702 4.01263 40.751C2.68003 39.6266 3.10235 38.6135 3.2578 38.4111C4.43236 39.617 6.97147 41.3548 8.77647 42.1283C9.90439 41.6849 11.4693 41.3616 12.9953 41.1725C8.4742 39.3757 3.62225 36.0026 1.08574 32.8225C0.571018 33.8252 -1.51899 38.5517 2.39762 42.427C4.46171 44.4689 8.70909 45.8766 12.2319 46.4326ZM70.9897 63.784C70.8082 64.2567 70.4784 65.0237 70.2057 65.5392C70.3729 65.8197 70.5975 66.143 70.7929 66.3618C70.7695 66.5393 69.8616 67.0223 69.221 65.7754C68.5628 65.6381 67.9067 65.434 67.454 65.2453C68.2313 66.8199 68.9136 68.1074 69.9946 68.8164C71.5984 69.8694 74.1722 69.6332 75.0038 68.4716C73.5917 67.7009 71.9078 65.7269 70.9897 63.784ZM66.6584 65.5392C66.4494 66.0795 66.0799 66.5034 66.0799 66.5034C66.2923 67.3288 66.0107 67.7244 65.4994 67.6329C65.4648 67.0977 65.2836 66.6861 65.2836 66.6861C65.2836 66.6861 64.0961 65.7214 63.3663 65.5392C64.2145 66.2993 65.0091 67.9685 64.8069 69.7428C67.244 69.6714 67.4238 67.165 66.6584 65.5392ZM75.0469 62.7968C75.7292 63.5321 76.8037 64.0499 76.8037 64.0499C76.8037 64.0499 76.5204 64.5998 75.8537 64.5998C75.6342 64.5998 75.4021 64.5356 75.1687 64.4025C74.7093 64.142 74.1125 63.4406 74.1125 63.4406C73.2602 63.3539 72.4914 63.1958 71.7307 62.9542C73.0635 64.6537 75.3044 66.6789 77.6577 67.2636C78.0092 67.3506 78.3678 67.3957 78.7238 67.3957C80.8619 67.3957 82.5713 65.8092 83.052 64.8005C80.6193 64.4479 77.1362 62.6282 75.282 60.7542C75.2647 61.5031 75.1806 62.2544 75.0469 62.7968ZM79.4128 59.3865C80.6366 59.9599 81.9174 60.3361 83.0262 60.4726C83.0262 60.4726 82.843 61.5482 81.1157 61.3277C80.1684 61.2058 79.0294 60.4822 78.7719 60.3084C78.0248 60.4146 76.4512 60.3781 75.8527 60.2562C77.733 61.6055 80.6529 63.1644 83.0731 63.4051C83.1938 63.4174 83.3146 63.4225 83.4374 63.4225C85.9763 63.4225 87.9774 60.8392 88.4938 59.6046C85.9115 59.5698 81.5622 58.5185 78.8954 57.0241C79.0786 57.634 79.2904 58.4584 79.4128 59.3865ZM81.5605 52.573C82.0963 53.2106 82.6852 53.9936 83.0574 54.6548C85.1386 55.1194 87.7365 55.0091 87.7365 55.0091C87.7365 55.0091 87.5828 56.125 86.1388 56.2048C85.5023 56.2397 83.5436 55.9092 82.7239 55.672C82.3768 55.8181 80.8585 56.1936 79.2866 56.3977C81.4916 57.1848 84.6965 58.0051 86.7116 58.0051C86.9117 58.0051 87.0973 57.9983 87.2659 57.9826C90.4959 57.6904 92.1333 54.7033 92.2178 52.9717C91.2637 53.1645 89.5985 53.286 87.8851 53.286C86.4316 53.286 83.6906 53.1628 81.5605 52.573ZM94.9229 44.1146C92.0495 45.6438 86.9375 47.2406 82.9329 47.2051C83.9471 47.8304 84.9082 48.5493 85.5298 49.1514C87.2174 49.0503 89.5001 48.5318 90.8413 47.9888C90.8698 48.2284 90.8932 49.2964 89.3386 49.7743C88.2848 50.1 86.6406 50.1348 85.4297 50.159C84.4607 50.7786 82.9686 51.4042 81.761 51.8186C82.8803 51.9787 84.2551 52.0968 85.5593 52.0968C87.6958 52.0968 89.6097 51.8708 90.8101 51.4817C91.9501 51.1107 95.5791 49.4927 94.9229 44.1146ZM88.4999 27.9221C89.0061 28.2974 89.2687 29.3879 88.5552 30.633C87.3179 32.7878 85.18 34.6707 83.3078 36.1504C83.2284 37.5345 82.6255 39.1392 82.008 40.3322C84.7657 38.4927 87.9292 35.6708 89.3661 33.7774C91.2336 31.3159 92.0064 28.8509 91.6634 26.4528C91.3207 24.0704 89.9304 22.3795 89.1245 21.707C88.4059 23.5908 85.4348 28.3973 82.7853 31.2994C83.0988 32.3507 83.3017 33.7462 83.3207 34.9598C85.599 33.0606 88.1128 29.274 88.4999 27.9221ZM86.2271 42.1273C88.03 41.3541 90.5709 39.6164 91.7455 38.4104C91.9009 38.6128 92.3216 39.6266 90.9889 40.751C90.0192 41.5712 88.051 42.4799 86.5283 43.0769C85.8545 44.09 84.591 45.2178 82.7691 46.4343C86.2925 45.8783 90.5417 44.4706 92.6032 42.4287C96.5189 38.5538 94.4296 33.827 93.9159 32.8225C91.3801 36.0026 86.5273 39.3764 82.0063 41.1742C83.5324 41.3627 85.0983 41.6866 86.225 42.13L86.2271 42.1273ZM75.6905 36.6856C74.2225 40.1151 70.5001 43.1725 68.0922 44.7034C66.9953 45.4011 67.3953 46.7255 67.7468 47.3126C71.0267 52.7996 65.0607 56.8875 59.6742 54.1698C60.8488 54.1827 62.0363 53.1768 62.2005 52.2808C61.8273 52.6068 60.2968 52.4286 59.8452 52.0074C60.5397 51.6421 60.7046 51.2714 60.7399 50.9246C59.8825 51.4547 58.1491 51.5268 57.6368 50.6311C54.7905 50.5526 52.8956 48.3171 52.6883 47.6717C52.4759 48.3581 52.1356 49.5569 52.0233 50.742C51.2511 50.2157 49.9333 49.0244 49.2459 47.4092C48.4686 48.5284 47.8813 49.788 47.5013 51.1158C47.1213 49.788 46.534 48.5284 45.7567 47.4092C45.0683 49.0254 43.7495 50.2157 42.9783 50.742C42.866 49.5579 42.5257 48.3581 42.3133 47.6717C42.106 48.3171 40.2111 50.5536 37.3648 50.6311C36.8535 51.5257 35.1191 51.4537 34.2607 50.9236C34.2953 51.2694 34.4595 51.6398 35.1547 52.0053C34.7021 52.4259 33.1726 52.6051 32.7986 52.2801C32.9627 53.1768 34.1501 54.1827 35.3257 54.1698C29.9365 56.8896 23.9731 52.7996 27.2532 47.3126C27.6047 46.7255 28.0046 45.4011 26.9078 44.7034C24.4982 43.1725 20.7759 40.1157 19.3077 36.6856C19.135 38.0844 19.2671 41.5548 20.7586 43.7148C19.6687 44.1337 18.2713 44.814 17.3325 45.4454C17.9259 46.1257 19.3103 47.3006 20.2387 47.9393C19.4787 48.6185 18.3016 49.9201 17.6841 50.7717C18.4665 51.2407 20.0453 51.8101 21.2509 52.1941C20.6938 53.1212 19.8363 54.792 19.6212 55.7867C20.9711 55.985 22.3503 55.9666 23.5663 55.9284C23.4109 57.0876 23.5128 58.5437 23.6354 59.6039C24.8877 59.423 26.2661 58.9113 27.1806 58.4256C27.3534 59.2267 27.8327 60.7037 28.2602 61.4926C29.4503 60.3573 31.0187 59.8374 32.4696 60.1374C35.4421 60.7542 36.3256 63.783 36.3256 63.783L36.33 54.5729V53.5434C36.33 52.97 36.6367 52.6658 37.1877 52.6658H57.8115C58.3615 52.6658 58.6682 52.97 58.6682 53.5434V54.5722L58.6733 63.7823C58.6733 63.7823 59.5568 60.7549 62.5286 60.1381C63.9794 59.8374 65.5486 60.3573 66.7371 61.4936C67.1663 60.703 67.644 59.2257 67.8167 58.4263C68.7321 58.9113 70.1113 59.423 71.3646 59.6046C71.4854 58.543 71.5889 57.0865 71.4335 55.9277C72.6359 56.0526 74.0185 56.0526 75.3777 55.786C75.1619 54.792 74.3052 53.1202 73.7481 52.1941C75.0021 51.8551 76.5316 51.2407 77.315 50.7717C76.6975 49.9201 75.5185 48.6196 74.7602 47.9393C75.6895 47.3013 77.0731 46.1268 77.6672 45.4454C76.7288 44.8146 75.3312 44.1337 74.2421 43.7148C75.7329 41.5565 75.8653 38.0844 75.6905 36.6856ZM38.2086 25.9028L38.0851 26.226C41.6863 26.226 45.1521 24.9836 46.0763 20.6583H43.3159C42.8263 23.775 41.0094 25.9028 38.2086 25.9028ZM22.6284 18.865C22.6284 18.865 24.5992 19.3255 25.3705 22.1197C26.1426 24.9141 28.0806 26.2504 30.0687 26.2504L29.9478 25.8698C28.7905 25.7247 27.1582 24.0643 26.8533 20.9894C26.5459 17.8936 25.7911 17.4947 25.7911 17.4947C25.0138 16.9526 23.055 18.3844 22.6284 18.865ZM16.8627 20.1161C18.5071 20.0614 19.6134 20.5879 21.6793 18.6912C24.119 16.453 25.2772 16.8361 25.2772 16.8361C24.031 16.0194 22.295 15.6571 21.6991 16.1289C21.1032 16.5998 20.2957 17.8649 18.9398 18.765C17.0285 20.0336 15.0655 19.6991 14.9774 20.8816H15.031C15.031 20.8816 15.2192 20.17 16.8627 20.1161ZM18.3793 27.538C19.3785 28.5303 19.4709 30.5704 19.4709 30.5704C19.4709 30.5704 20.6671 28.4069 19.6808 26.1105C18.6945 23.8132 16.6788 22.0502 18.6548 20.7087C17.4474 20.7191 16.1399 20.4394 15.5655 21.263C15.3868 21.5211 15.2201 22.158 15.8229 23.0616C16.5872 24.212 18.4967 26.8873 16.9318 28.6684C18.0762 28.4556 18.3793 27.538 18.3793 27.538ZM30.7233 26.2382H37.4941C37.4941 26.2382 37.6617 25.8238 37.8741 25.226H30.3433C30.5558 25.8238 30.7233 26.2382 30.7233 26.2382ZM34.7737 16.5529C34.7737 16.1819 34.4826 15.8786 34.1226 15.8786C33.7624 15.8786 33.4706 16.1828 33.4706 16.5538C33.4706 16.9274 33.7624 17.2297 34.1233 17.2297C34.4843 17.2297 34.7737 16.9256 34.7737 16.5529ZM38.1567 24.4631C38.4461 23.5482 38.7725 22.1571 38.7725 21.4864C38.7725 20.2595 38.116 18.9006 35.7498 18.4827C35.7498 19.9667 35.0353 23.6003 34.1708 23.6003H34.0734C33.2097 23.6003 32.4929 19.9945 32.4929 18.4827C30.1196 18.8997 29.4443 20.2595 29.4443 21.4872C29.4443 22.158 29.7724 23.549 30.0609 24.464L38.1567 24.4631ZM34.1233 22.5811C34.5725 22.5811 34.9379 20.2091 34.9379 19.0274C34.9379 18.3827 34.5725 17.9587 34.1226 17.9587C33.6735 17.9587 33.3073 18.3827 33.3073 19.0274C33.3073 20.2091 33.6726 22.5811 34.1233 22.5811ZM33.6873 14.9785H34.5569L34.449 13.855L35.5354 13.968V13.0678L34.4473 13.1791L34.5562 12.0547H33.6864L33.7953 13.1791L32.7071 13.0661V13.9663L33.7953 13.8533L33.6873 14.9785ZM51.682 20.6592H48.9219C49.8461 24.9844 53.3092 26.2269 56.9141 26.2269L56.793 25.9028C53.9915 25.9028 52.1716 23.7758 51.682 20.6592ZM64.9304 26.2512C66.9166 26.2512 68.8567 24.9149 69.6285 22.1206C70.399 19.3272 72.3706 18.8667 72.3706 18.8667C71.9431 18.3862 69.9871 16.9534 69.2071 17.4956C69.2071 17.4956 68.4532 17.8953 68.1448 20.9902C67.8408 24.066 66.2085 25.7256 65.0512 25.8707L64.9304 26.2512ZM73.3199 18.6921C75.3855 20.5888 76.4919 20.0623 78.1364 20.117C79.7799 20.1709 79.9672 20.8816 79.9672 20.8816H80.0208C79.9326 19.6999 77.9695 20.0353 76.0583 18.7659C74.7025 17.8657 73.895 16.6007 73.2989 16.1298C72.7031 15.658 70.9673 16.0211 69.7218 16.837C69.7218 16.837 70.8801 16.4539 73.3199 18.6921ZM79.4325 21.2639C78.8584 20.4385 77.5498 20.7191 76.3433 20.7079C78.3193 22.0502 76.3046 23.8132 75.3173 26.1122C74.3327 28.4086 75.528 30.5695 75.528 30.5695C75.528 30.5695 75.6207 28.5311 76.6198 27.5389C76.6198 27.5389 76.9221 28.4547 78.0662 28.6684C76.5014 26.8873 78.4119 24.2111 79.1753 23.0616C79.7762 22.158 79.6113 21.522 79.4325 21.2639ZM64.2756 26.2391C64.2756 26.2391 64.4432 25.8246 64.6556 25.2268H57.1248C57.3372 25.8246 57.5048 26.2391 57.5048 26.2391H64.2756ZM61.5294 16.5538C61.5294 16.1828 61.2356 15.8795 60.8763 15.8795C60.5153 15.8795 60.2229 16.1836 60.2229 16.5546C60.2229 16.9283 60.5163 17.2306 60.8756 17.2306C61.2349 17.2306 61.5294 16.9265 61.5294 16.5538ZM64.9382 24.464C65.2276 23.549 65.554 22.158 65.554 21.4872C65.554 20.2595 64.8785 18.9006 62.5052 18.4835C62.5052 19.9954 61.7883 23.6012 60.9248 23.6012H60.8281C59.9643 23.6012 59.2477 19.9676 59.2477 18.4835C56.8812 18.9023 56.2267 20.2612 56.2267 21.4881C56.2267 22.1589 56.5531 23.5499 56.8415 24.4649L64.9382 24.464ZM60.8763 22.582C61.3255 22.582 61.6916 20.21 61.6916 19.0283C61.6916 18.3836 61.3265 17.9596 60.8756 17.9596C60.424 17.9596 60.0593 18.3836 60.0593 19.0283C60.0593 20.21 60.4257 22.582 60.8763 22.582ZM60.4413 14.9794H61.3109L61.202 13.8559L62.2901 13.9689V13.0687L61.202 13.1799L61.3109 12.0556H60.4413L60.5492 13.1799L59.4625 13.067V13.9671L60.5509 13.8542L60.4413 14.9794ZM16.1425 42.0143C14.3823 42.0576 11.2853 42.4106 9.71266 42.9144C10.7819 44.2091 13.5731 46.0701 15.2468 46.8593C13.9453 47.3569 11.6109 48.6196 10.6385 49.531C11.8925 50.313 14.6458 51.2062 15.9482 51.4981C15.1907 52.1176 13.6301 53.9117 13.0575 54.8781C14.1353 55.217 16.3515 55.5123 17.7583 55.5966C17.3092 56.5455 16.7945 58.2205 16.658 59.3111C17.3559 59.3831 19.686 59.2616 20.8398 58.9997C20.7413 59.9504 20.7793 61.6813 20.9348 62.4268C22.0731 62.2616 23.6985 61.7994 24.455 61.5059C24.6744 62.3527 25.4568 64.1782 25.7332 64.6121C26.6443 64.4346 27.7325 64.0594 28.5331 63.6362C28.7862 64.3158 29.3605 65.3323 29.5194 65.5887C32.1854 62.8688 35.9924 65.076 35.9924 67.9692C35.7186 69.8749 33.0508 69.7677 31.6465 70.6627C29.8009 71.842 30.1205 74.5727 28.2196 74.9933C30.016 76.1402 30.5385 73.9887 32.4039 73.9279C32.1535 75.0878 32.1794 77.1471 32.3651 78.01C33.1337 77.4124 34.2098 76.9553 34.9128 76.9092C34.7401 77.5868 34.6044 79.1682 34.8558 80.1554C35.3508 79.7782 37.1989 78.1568 41.5869 79.1996C42.1189 79.3256 38.611 79.1863 39.048 80.3291C39.3934 81.2282 39.4911 81.8539 39.0782 83.1319C39.2648 83.1988 39.4806 83.2312 39.713 83.2312C40.6976 83.2312 41.9723 82.655 42.4792 81.7505C42.8714 82.044 42.8714 84.1364 41.5584 84.656C42.9603 84.7604 44.0284 83.6108 44.2357 82.9042C44.2357 82.9042 44.9197 84.5481 45.7326 85.0877C46.2419 84.9072 47.1515 84.0538 47.503 83.1677C47.8535 84.0538 48.7638 84.9072 49.2734 85.0877C50.0853 84.5491 50.771 82.9042 50.771 82.9042C50.9783 83.6108 52.0447 84.7594 53.4466 84.656C52.1339 84.1364 52.1339 82.044 52.5258 81.7505C53.0327 82.654 54.3084 83.2312 55.293 83.2312C55.5261 83.2312 55.7422 83.1988 55.9278 83.1319C55.5149 81.8549 55.6126 81.2292 55.957 80.3281C56.394 79.1856 52.8861 79.3245 53.4181 79.1986C57.8054 78.1558 59.6535 79.7772 60.1492 80.1544C60.3996 79.1689 60.2649 77.5861 60.0915 76.9092C60.7952 76.9553 61.8721 77.413 62.6392 78.01C62.8265 77.1471 62.8506 75.0878 62.6012 73.9279C64.4666 73.9887 64.9891 76.1402 66.7857 74.994C64.8857 74.5755 65.2049 71.8437 63.3568 70.6654C61.9525 69.7704 59.2847 69.8766 59.0126 67.9702C59.0126 65.0766 62.8187 62.8716 65.4848 65.5893C65.6429 65.334 66.219 64.3175 66.4711 63.6379C67.2708 64.0611 68.3599 64.4373 69.2719 64.6138C69.5481 64.1793 70.3298 62.3548 70.5483 61.5066C71.3049 61.8022 72.9321 62.2626 74.0694 62.4275C74.2248 61.683 74.2628 59.9514 74.1644 59.0018C75.3173 59.2622 77.6475 59.3841 78.3444 59.3128C78.2097 58.2222 77.6967 56.5472 77.2441 55.5983C78.6518 55.515 80.868 55.2194 81.9459 54.8804C81.3732 53.9145 79.8125 52.12 79.0552 51.5008C80.3567 51.208 83.11 50.3147 84.364 49.5327C83.3916 48.6203 81.0563 47.3587 79.7565 46.8617C81.4292 46.0728 84.2215 44.2118 85.2906 42.9171C83.717 42.4133 80.62 42.0593 78.8618 42.017C82.5027 39.5102 82.615 34.0754 81.5666 31.1213C80.8619 32.9112 78.5249 35.8531 77.0154 37.4396C77.1501 38.949 76.6629 41.6275 75.8286 43.2612C77.0239 43.7183 78.4405 44.4081 79.443 45.1754C78.778 46.0182 77.3442 47.3259 76.4461 48.0338C77.2061 48.835 78.4863 50.3051 79.0542 51.1547C78.2131 51.7893 76.3813 52.5173 75.4418 52.8519C75.904 53.8059 76.5757 55.5454 76.7494 56.7479C75.6783 56.9251 74.2068 57.0449 72.6668 57.0258C72.7421 58.1771 72.5806 59.9582 72.3818 61.0242C70.9541 60.9095 69.2692 60.3207 68.5187 59.9408C68.1214 61.5308 67.1395 63.0733 67.0964 63.1556C62.6331 58.2597 58.676 62.8777 58.676 67.1933V73.0722C58.676 75.8524 57.8061 77.1236 55.2991 77.1236H52.0569C50.0385 77.1236 48.3468 77.9858 47.503 79.6417C46.6592 77.9865 44.9672 77.1246 42.9481 77.1246H39.7025C37.1979 77.1246 36.3256 75.8541 36.3256 73.0729V67.1926C36.3256 62.8777 32.3703 58.2587 27.9078 63.1549C27.8646 63.0723 26.8827 61.5301 26.4854 59.9401C25.7341 60.3197 24.05 60.9089 22.6223 61.0236C22.4237 59.9575 22.2622 58.1761 22.3373 57.0268C20.7975 57.0442 19.325 56.9241 18.2549 56.7462C18.4277 55.5437 19.0996 53.8032 19.5625 52.8491C18.6228 52.5146 16.7902 51.7865 15.9482 51.1523C16.5182 50.3024 17.7963 48.8322 18.5563 48.0331C17.6582 47.3232 16.2262 46.0145 15.5595 45.1717C16.5639 44.403 17.9803 43.7138 19.1756 43.2568C18.3404 41.6234 17.8542 38.9446 17.9881 37.4355C16.4793 35.8486 14.1423 32.9068 13.4367 31.1161C12.3882 34.0702 12.5014 39.5085 16.1425 42.0143ZM6.09401 70.0903L5.76582 70.4429C5.76582 70.4429 6.44809 71.3379 6.99651 70.9972C7.31001 70.4152 6.42478 69.739 6.42478 69.739L6.09401 70.0903Z" fill="#2B3990"/>
</g>
<defs>
<clipPath id="clip0_557_362">
<rect width="95" height="106" fill="white"/>
</clipPath>
</defs>
</svg>
