<svg width="389" height="146" viewBox="0 0 389 146" fill="none" xmlns="http://www.w3.org/2000/svg">
<path d="M201.7 49.0002H126C125.9 48.8002 125.8 48.6002 125.7 48.4002L127.1 46.5002L131.6 40.2002C130.4 38.2002 129.1 36.3002 127.8 34.5002L119.4 36.4002L117.9 36.8002C116.3 34.9002 114.5 33.2002 112.7 31.6002L112.8 31.2002L115 21.7002C113.2 20.3002 111.2 19.0002 109.3 17.9002L101.1 23.8002C98.9 22.7002 96.6 21.8002 94.3 21.0002L92.7 11.0002C90.5 10.4002 88.2 10.0002 85.9 9.7002L80.6 18.3002C79.4 18.2002 78.2 18.2002 76.9 18.2002C75.7 18.2002 74.4 18.2002 73.2 18.3002L67.9 9.7002C65.5 10.0002 63.2 10.4002 61 11.0002L59.4 21.0002C57 21.8002 54.8 22.7002 52.6 23.8002L44.4 17.9002C42.4 19.1002 40.5 20.4002 38.7 21.7002L40.9 31.2002L41 31.6002C39.2 33.2002 37.4 35.0002 35.8 36.8002L34.3 36.4002L26 34.5002C24.6 36.3002 23.3 38.3002 22.2 40.2002L26.7 46.5002L28.1 48.4002C27 50.6002 26.1 52.9002 25.3 55.2002L22.9 55.6002L15.3 56.8002C14.7 59.0002 14.3 61.3002 14 63.6002L20.8 67.8002L22.6 68.9002C22.5 70.1002 22.5 71.3002 22.5 72.6002C22.5 73.8002 22.5 75.1002 22.6 76.3002L21.1 77.2002L14 81.6002C14.3 83.9002 14.8 86.2002 15.3 88.4002L25.2 90.0002C25.3 90.2002 25.3 90.4002 25.4 90.6002C26.2 92.7002 27 94.8002 28 96.9002L22.1 105.1C23.3 107.1 24.6 109 25.9 110.8L33.8 109L35.8 108.5C37.4 110.4 39.2 112.1 41 113.7L39.5 120L38.7 123.5C40.1 124.5 41.5 125.4 43 126.4C43.5 126.7 44 127.1 44.5 127.4L52.7 121.5C54.9 122.6 57.2 123.5 59.5 124.3L61.1 134.3C63.3 134.9 65.6 135.3 67.9 135.6L73.2 127C74.4 127.1 75.6 127.1 76.9 127.1C78.1 127.1 79.4 127 80.6 127L85.9 135.6C88.2 135.3 90.5 134.8 92.7 134.3L94.3 124.3C96.6 123.5 98.9 122.6 101.1 121.5L109.3 127.4C109.8 127.1 110.3 126.7 110.8 126.4C112.3 125.5 113.7 124.6 115.1 123.5L114.3 120L112.8 113.7C114.6 112.1 116.4 110.3 118 108.5L120 109L127.9 110.8C129.3 109 130.6 107 131.7 105.1H192L201.7 49.0002ZM78.4 121.8C50 122.7 26.8 99.5002 27.7 71.1002C28.5 45.4002 49.5 24.4002 75.2 23.6002C94.4 23.0002 111.3 33.4002 119.9 49.1002H59L49.1 105.2H113.6C104.9 114.9 92.4 121.3 78.4 121.8Z" fill="#2B3990"/>
<path d="M50.9001 39.9004L41.1001 96.0004H183.8L193.7 39.9004H50.9001Z" fill="#BE1E2D"/>
<path d="M212.7 40H218.7C219.7 40 220.4 40.2 220.8 40.7C221.2 41.1 221.3 41.8 221.1 42.7C221 43.3 220.8 43.8 220.4 44.2C220.1 44.6 219.7 44.8 219.3 45C220.1 45.2 220.5 45.8 220.7 46.6C220.7 46.9 220.7 47.3 220.7 47.7C220.5 48.7 220.2 49.4 219.6 49.9C219.1 50.4 218.3 50.6 217.3 50.6H210.8L212.7 40ZM218.1 47.3C218.2 46.7 218 46.4 217.4 46.4H214.4L214 48.5H217C217.6 48.5 218 48.2 218.1 47.6V47.3ZM218.4 43C218.5 42.4 218.3 42.1 217.7 42.1H215.1L214.7 44.2H217.3C217.9 44.2 218.3 43.9 218.4 43.3V43Z" fill="#2B3990"/>
<path d="M229.8 50.4C227.5 50.6 225.6 50.7 224.2 50.7C223.2 50.7 222.5 50.5 222.1 50C221.7 49.5 221.6 48.8 221.8 47.8L222.7 43C222.9 41.9 223.3 41.2 223.8 40.7C224.4 40.2 225.2 40 226.2 40H231.6L231.2 42.1H226.4C225.8 42.1 225.4 42.4 225.3 43L224.4 47.8C224.4 48 224.4 48.2 224.5 48.4C224.6 48.5 224.8 48.6 225 48.6C225.2 48.6 225.4 48.6 225.7 48.6C226 48.6 226.2 48.6 226.5 48.6C226.8 48.6 227 48.6 227.3 48.6C227.6 48.6 227.9 48.6 228.4 48.5C228.8 48.5 229.4 48.4 230.1 48.4L229.8 50.4Z" fill="#2B3990"/>
<path d="M239.3 50.6H231L232.9 40H241.3L240.9 42.1H235.2L234.8 44.1H239.3L238.9 46.2H234.4L234 48.4H239.7L239.3 50.6Z" fill="#2B3990"/>
<path d="M242.4 40H248.7C249.8 40 250.5 40.2 250.9 40.7C251.3 41.2 251.4 41.9 251.2 43L250.9 44.5C250.7 45.6 250.3 46.3 249.8 46.8C249.2 47.3 248.4 47.5 247.4 47.5H243.8L243.3 50.5H240.6L242.4 40ZM248.5 43C248.6 42.4 248.4 42.1 247.8 42.1H244.8L244.2 45.4H247.2C247.8 45.4 248.2 45.1 248.3 44.5L248.5 43Z" fill="#2B3990"/>
<path d="M261.3 47.6994C261.1 48.7994 260.7 49.4994 260.2 49.9994C259.6 50.4994 258.8 50.6994 257.8 50.6994H254C252.9 50.6994 252.2 50.4994 251.8 49.9994C251.4 49.4994 251.3 48.7994 251.5 47.6994L252.4 42.8994C252.6 41.7994 253 41.0994 253.5 40.5994C254.1 40.0994 254.9 39.8994 255.9 39.8994H259.7C260.8 39.8994 261.5 40.0994 261.9 40.5994C262.3 41.0994 262.4 41.7994 262.2 42.8994L261.3 47.6994ZM259.4 42.8994C259.5 42.2994 259.3 41.9994 258.7 41.9994H256.1C255.5 41.9994 255.1 42.2994 255 42.8994L254.1 47.6994C254 48.2994 254.2 48.5994 254.8 48.5994H257.4C258 48.5994 258.4 48.2994 258.5 47.6994L259.4 42.8994Z" fill="#2B3990"/>
<path d="M270.5 50.4C268.2 50.6 266.3 50.7 264.9 50.7C263.9 50.7 263.2 50.5 262.8 50C262.4 49.5 262.3 48.8 262.5 47.8L263.4 43C263.6 41.9 264 41.2 264.5 40.7C265.1 40.2 265.9 40 266.9 40H272.3L271.9 42.1H267.1C266.5 42.1 266.1 42.4 266 43L265.1 47.8C265.1 48 265.1 48.2 265.2 48.4C265.3 48.5 265.5 48.6 265.7 48.6C265.9 48.6 266.1 48.6 266.4 48.6C266.7 48.6 266.9 48.6 267.2 48.6C267.5 48.6 267.7 48.6 268 48.6C268.3 48.6 268.6 48.6 269.1 48.5C269.5 48.5 270.1 48.4 270.8 48.4L270.5 50.4Z" fill="#2B3990"/>
<path d="M279.8 50.4C277.5 50.6 275.6 50.7 274.2 50.7C273.2 50.7 272.5 50.5 272.1 50C271.7 49.5 271.6 48.8 271.8 47.8L272.7 43C272.9 41.9 273.3 41.2 273.8 40.7C274.4 40.2 275.2 40 276.2 40H281.6L281.2 42.1H276.4C275.8 42.1 275.4 42.4 275.3 43L274.4 47.8C274.4 48 274.4 48.2 274.5 48.4C274.6 48.5 274.8 48.6 275 48.6C275.2 48.6 275.4 48.6 275.7 48.6C276 48.6 276.2 48.6 276.5 48.6C276.8 48.6 277 48.6 277.3 48.6C277.6 48.6 277.9 48.6 278.4 48.5C278.8 48.5 279.4 48.4 280.1 48.4L279.8 50.4Z" fill="#2B3990"/>
<path d="M290.2 50.6H287.5L288.6 44.1L283.8 50.6H281L282.9 40H285.6L284.5 46.5L289.3 40H292.2L290.2 50.6Z" fill="#2B3990"/>
<path d="M298.5 50.5998L299.6 44.0998L294.8 50.5998H292L293.9 39.9998H296.6L295.5 46.4998L300.3 39.9998H303.2L301.3 50.5998H298.5ZM297.8 39.2998C296.5 39.2998 296 38.5998 296.2 37.2998L296.3 36.7998H298.3L298.2 37.1998C298.2 37.3998 298.2 37.4998 298.3 37.5998C298.4 37.6998 298.5 37.7998 298.7 37.7998H299.2C299.4 37.7998 299.5 37.7998 299.6 37.5998C299.7 37.4998 299.8 37.3998 299.8 37.1998L299.9 36.7998H301.9L301.8 37.2998C301.6 38.5998 300.8 39.2998 299.5 39.2998H297.8Z" fill="#2B3990"/>
<path d="M311.2 50.4C308.9 50.6 307 50.7 305.6 50.7C304.6 50.7 303.9 50.5 303.5 50C303.1 49.5 303 48.8 303.2 47.8L304.1 43C304.3 41.9 304.7 41.2 305.2 40.7C305.8 40.2 306.6 40 307.6 40H313L312.6 42.1H307.8C307.2 42.1 306.8 42.4 306.7 43L305.8 47.8C305.8 48 305.8 48.2 305.9 48.4C306 48.5 306.2 48.6 306.4 48.6C306.6 48.6 306.8 48.6 307.1 48.6C307.4 48.6 307.6 48.6 307.9 48.6C308.2 48.6 308.4 48.6 308.7 48.6C309 48.6 309.3 48.6 309.8 48.5C310.2 48.5 310.8 48.4 311.5 48.4L311.2 50.4Z" fill="#2B3990"/>
<path d="M322 39.8994C322.3 39.8994 322.7 39.9994 323.3 40.0994L322.9 42.0994H322.3C322.1 42.0994 322 42.0994 321.9 42.1994C321.8 42.2994 321.7 42.3994 321.6 42.4994L319.7 45.1994L321.7 50.5994H318.8L317.2 46.2994H315.8L315 50.5994H312.3L314.2 39.9994H316.9L316.2 44.1994H317.6L319.6 41.2994C319.9 40.8994 320.2 40.4994 320.6 40.2994C321 39.9994 321.5 39.8994 322 39.8994Z" fill="#2B3990"/>
<path d="M332.6 47.6994C332.4 48.7994 332 49.4994 331.5 49.9994C330.9 50.4994 330.1 50.6994 329.1 50.6994H325.3C324.2 50.6994 323.5 50.4994 323.1 49.9994C322.7 49.4994 322.6 48.7994 322.8 47.6994L323.7 42.8994C323.9 41.7994 324.3 41.0994 324.8 40.5994C325.4 40.0994 326.2 39.8994 327.2 39.8994H331C332.1 39.8994 332.8 40.0994 333.2 40.5994C333.6 41.0994 333.7 41.7994 333.5 42.8994L332.6 47.6994ZM330.8 42.8994C330.9 42.2994 330.7 41.9994 330.1 41.9994H327.5C326.9 41.9994 326.5 42.2994 326.4 42.8994L325.5 47.6994C325.4 48.2994 325.6 48.5994 326.2 48.5994H328.8C329.4 48.5994 329.8 48.2994 329.9 47.6994L330.8 42.8994Z" fill="#2B3990"/>
<path d="M342 50.6H333.6L335.5 40H343.9L343.5 42.1H337.8L337.4 44.1H341.9L341.5 46.2H337L336.6 48.4H342.3L342 50.6Z" fill="#2B3990"/>
<path d="M217.7 65.8C217.5 66.9 217.1 67.6 216.6 68.1C216 68.6 215.2 68.8 214.2 68.8H210.4C209.3 68.8 208.6 68.6 208.2 68.1C207.8 67.6 207.7 66.9 207.9 65.8L208.8 61C209 59.9 209.4 59.2 209.9 58.7C210.4 58.2 211.3 58 212.3 58H216.1C217.2 58 217.9 58.2 218.3 58.7C218.7 59.2 218.8 59.9 218.6 61L217.7 65.8ZM215.8 61C215.9 60.4 215.7 60.1 215.1 60.1H212.5C211.9 60.1 211.5 60.4 211.4 61L210.5 65.8C210.4 66.4 210.6 66.7 211.2 66.7H213.8C214.4 66.7 214.8 66.4 214.9 65.8L215.8 61Z" fill="#2B3990"/>
<path d="M222.6 62.1996H226.2C227.3 62.1996 228 62.3996 228.4 62.8996C228.8 63.3996 228.9 64.0996 228.7 65.1996L228.6 65.6996C228.4 66.7996 228 67.4996 227.5 67.9996C226.9 68.4996 226.1 68.6996 225.1 68.6996H218.8L220.7 58.0996H229.1L228.7 60.1996H223L222.6 62.1996ZM226 65.1996C226.1 64.5996 225.9 64.2996 225.3 64.2996H222.3L221.9 66.5996H224.9C225.5 66.5996 225.9 66.2996 226 65.6996V65.1996Z" fill="#2B3990"/>
<path d="M229.4 68.6996L231.3 58.0996H234L232.5 66.5996H235.1L236.6 58.0996H239.3L237.8 66.5996H240.4L241.9 58.0996H244.6L243.1 66.5996H244.2L243.5 70.6996H240.9L241.1 68.6996H229.4Z" fill="#2B3990"/>
<path d="M253.4 68.6996H245L246.9 58.0996H255.3L254.9 60.1996H249.2L248.8 62.1996H253.3L252.9 64.2996H248.4L248 66.4996H253.7L253.4 68.6996Z" fill="#2B3990"/>
<path d="M262.8 68.4996C260.5 68.6996 258.6 68.7996 257.2 68.7996C256.2 68.7996 255.5 68.5996 255.1 68.0996C254.7 67.5996 254.6 66.8996 254.8 65.8996L255.7 61.0996C255.9 59.9996 256.3 59.2996 256.8 58.7996C257.4 58.2996 258.2 58.0996 259.2 58.0996H264.6L264.2 60.1996H259.4C258.8 60.1996 258.4 60.4996 258.3 61.0996L257.4 65.8996C257.4 66.0996 257.4 66.2996 257.5 66.4996C257.6 66.5996 257.8 66.6996 258 66.6996C258.2 66.6996 258.4 66.6996 258.7 66.6996C259 66.6996 259.2 66.6996 259.5 66.6996C259.8 66.6996 260 66.6996 260.3 66.6996C260.6 66.6996 260.9 66.6996 261.4 66.5996C261.8 66.5996 262.4 66.4996 263.1 66.4996L262.8 68.4996Z" fill="#2B3990"/>
<path d="M269.1 68.6996H266.4L267.9 60.1996H264.7L265.1 58.0996H274.2L273.8 60.1996H270.6L269.1 68.6996Z" fill="#2B3990"/>
<path d="M275.2 58.0996H281.2C282.2 58.0996 282.9 58.2996 283.3 58.7996C283.7 59.1996 283.8 59.8996 283.6 60.7996C283.5 61.3996 283.3 61.8996 282.9 62.2996C282.6 62.6996 282.2 62.8996 281.8 63.0996C282.6 63.2996 283 63.8996 283.2 64.6996C283.2 64.9996 283.2 65.3996 283.2 65.7996C283 66.7996 282.7 67.4996 282.1 67.9996C281.6 68.4996 280.8 68.6996 279.8 68.6996H273.3L275.2 58.0996ZM280.6 65.3996C280.7 64.7996 280.5 64.4996 279.9 64.4996H276.9L276.5 66.5996H279.5C280.1 66.5996 280.5 66.2996 280.6 65.6996V65.3996ZM280.9 61.1996C281 60.5996 280.8 60.2996 280.2 60.2996H277.6L277.2 62.3996H279.8C280.4 62.3996 280.8 62.0996 280.9 61.4996V61.1996Z" fill="#2B3990"/>
<path d="M294.1 65.8C293.9 66.9 293.5 67.6 293 68.1C292.5 68.6 291.6 68.8 290.6 68.8H286.8C285.7 68.8 285 68.6 284.6 68.1C284.2 67.6 284.1 66.9 284.3 65.8L285.2 61C285.4 59.9 285.8 59.2 286.3 58.7C286.8 58.2 287.7 58 288.7 58H292.5C293.6 58 294.3 58.2 294.7 58.7C295.1 59.2 295.2 59.9 295 61L294.1 65.8ZM292.2 61C292.3 60.4 292.1 60.1 291.5 60.1H288.9C288.3 60.1 287.9 60.4 287.8 61L286.9 65.8C286.8 66.4 287 66.7 287.6 66.7H290.2C290.8 66.7 291.2 66.4 291.3 65.8L292.2 61Z" fill="#2B3990"/>
<path d="M213.7 86.8002H211L212.1 80.3002L207.3 86.8002H204.4L206.3 76.2002H209L207.9 82.7002L212.7 76.2002H215.6L213.7 86.8002Z" fill="#2B3990"/>
<path d="M215.3 84.6002C217.8 84.8002 219.6 84.8002 220.7 84.8002C220.9 84.8002 221.1 84.7002 221.3 84.6002C221.5 84.5002 221.6 84.3002 221.6 84.0002L221.7 83.4002C221.8 82.8002 221.6 82.5002 221 82.5002H217.4L217.8 80.4002H221.1C221.7 80.4002 222.1 80.1002 222.2 79.5002L222.3 79.2002C222.4 78.6002 222.2 78.3002 221.6 78.3002H216.8L217.2 76.2002H222.8C223.8 76.2002 224.5 76.4002 224.9 76.9002C225.3 77.3002 225.4 78.0002 225.2 78.9002C225.1 79.5002 224.9 80.0002 224.5 80.4002C224.2 80.8002 223.7 81.0002 223.3 81.2002C224.1 81.4002 224.5 82.0002 224.7 82.8002C224.7 83.1002 224.7 83.5002 224.7 83.9002V84.1002C224.5 85.1002 224.2 85.8002 223.6 86.3002C223.1 86.8002 222.3 87.0002 221.3 87.0002C219.6 87.0002 217.6 86.9002 215.3 86.7002V84.6002Z" fill="#2B3990"/>
<path d="M235.2 84.0002C235 85.1002 234.6 85.8002 234.1 86.3002C233.5 86.8002 232.7 87.0002 231.7 87.0002H227.9C226.8 87.0002 226.1 86.8002 225.7 86.3002C225.3 85.8002 225.2 85.1002 225.4 84.0002L226.3 79.2002C226.5 78.1002 226.9 77.4002 227.4 76.9002C228 76.4002 228.8 76.2002 229.8 76.2002H233.6C234.7 76.2002 235.4 76.4002 235.8 76.9002C236.2 77.4002 236.3 78.1002 236.1 79.2002L235.2 84.0002ZM233.3 79.1002C233.4 78.5002 233.2 78.2002 232.6 78.2002H230C229.4 78.2002 229 78.5002 228.9 79.1002L228 83.9002C227.9 84.5002 228.1 84.8002 228.7 84.8002H231.3C231.9 84.8002 232.3 84.5002 232.4 83.9002L233.3 79.1002Z" fill="#2B3990"/>
<path d="M240.1 80.3002H243.7C244.8 80.3002 245.5 80.5002 245.9 81.0002C246.3 81.5002 246.4 82.2002 246.2 83.3002L246.1 83.8002C245.9 84.9002 245.5 85.6002 245 86.1002C244.4 86.6002 243.6 86.8002 242.6 86.8002H236.3L238.2 76.2002H246.6L246.2 78.3002H240.5L240.1 80.3002ZM243.5 83.3002C243.6 82.7002 243.4 82.4002 242.8 82.4002H239.8L239.4 84.7002H242.4C243 84.7002 243.4 84.4002 243.5 83.8002V83.3002Z" fill="#2B3990"/>
<path d="M248.8 76.2998H255.1C256.2 76.2998 256.9 76.4998 257.3 76.9998C257.7 77.4998 257.8 78.1998 257.6 79.2998L257.3 80.7998C257.1 81.8998 256.7 82.5998 256.2 83.0998C255.6 83.5998 254.8 83.7998 253.8 83.7998H250.2L249.7 86.7998H247L248.8 76.2998ZM254.9 79.2998C255 78.6998 254.8 78.3998 254.2 78.3998H251.2L250.6 81.6998H253.6C254.2 81.6998 254.6 81.3998 254.7 80.7998L254.9 79.2998Z" fill="#2B3990"/>
<path d="M266 86.8002H257.6L259.5 76.2002H267.9L267.5 78.3002H261.8L261.4 80.3002H265.9L265.5 82.4002H261L260.6 84.6002H266.3L266 86.8002Z" fill="#2B3990"/>
<path d="M272.4 86.8002H269.7L271.2 78.3002H268L268.4 76.2002H277.5L277.1 78.3002H273.9L272.4 86.8002Z" fill="#2B3990"/>
<path d="M277.4 86.8002H274.5L280.4 76.2002H283.4L285.5 86.8002H282.6L282.3 84.9002H278.5L277.4 86.8002ZM279.5 83.0002H281.9L281.3 79.5002L279.5 83.0002Z" fill="#2B3990"/>
<path d="M290.3 86.8002H287.6L289.1 78.3002H285.9L286.3 76.2002H295.4L295 78.3002H291.8L290.3 86.8002Z" fill="#2B3990"/>
<path d="M302.9 86.8002H294.5L296.4 76.2002H304.8L304.4 78.3002H298.7L298.3 80.3002H302.8L302.4 82.4002H298L297.6 84.6002H303.3L302.9 86.8002Z" fill="#2B3990"/>
<path d="M306.7 86.2996C306.2 86.6996 305.7 86.8996 305.1 86.8996C304.5 86.8996 303.9 86.8996 303.4 86.6996L303.8 84.6996H304.5C304.7 84.6996 304.9 84.5996 305 84.4996C305.1 84.3996 305.2 84.1996 305.3 83.9996L307.1 76.0996H315.5L313.6 86.6996H310.9L312.4 78.1996H309.2L307.7 84.4996C307.5 85.3996 307.2 85.8996 306.7 86.2996Z" fill="#2B3990"/>
<path d="M323.8 86.8002H315.4L317.3 76.2002H325.7L325.3 78.3002H319.6L319.2 80.3002H323.7L323.3 82.4002H318.8L318.4 84.6002H324.1L323.8 86.8002Z" fill="#2B3990"/>
<path d="M331.5 86.8L332.6 80.3L327.8 86.8H325L326.9 76.2H329.6L328.5 82.7L333.3 76.2H336.2L334.3 86.8H331.5ZM330.8 75.5C329.5 75.5 329 74.8 329.2 73.5L329.3 73H331.3L331.2 73.4C331.2 73.6 331.2 73.7 331.3 73.8C331.4 73.9 331.5 74 331.7 74H332.2C332.4 74 332.5 74 332.6 73.8C332.7 73.7 332.8 73.6 332.8 73.4L332.9 73H334.9L334.8 73.5C334.6 74.8 333.8 75.5 332.5 75.5H330.8Z" fill="#2B3990"/>
<path d="M349.8 86.8002H347L348.1 80.3002L343.3 86.8002H340.4L342.3 76.2002H345L343.9 82.7002L348.7 76.2002H351.6L349.8 86.8002Z" fill="#2B3990"/>
<path d="M203.2 94.3994H209.5C210.6 94.3994 211.3 94.5994 211.7 95.0994C212.1 95.5994 212.2 96.2994 212 97.3994L211.7 98.8994C211.5 99.9994 211.1 100.699 210.6 101.199C210 101.699 209.2 101.899 208.2 101.899H204.6L204.1 104.899H201.4L203.2 94.3994ZM209.3 97.3994C209.4 96.7994 209.2 96.4994 208.6 96.4994H205.6L205 99.7994H208C208.6 99.7994 209 99.4994 209.1 98.8994L209.3 97.3994Z" fill="#2B3990"/>
<path d="M213 104.9H210.1L216 94.2998H219L221.1 104.9H218.2L217.9 103H214L213 104.9ZM215 101.1H217.4L216.8 97.5998L215 101.1Z" fill="#2B3990"/>
<path d="M221.8 104.9L223.7 94.2998H226.4L224.9 102.8H228.7L230.2 94.2998H232.9L231.4 102.8H232.5L231.8 106.9H229.2L229.4 104.9H221.8Z" fill="#2B3990"/>
<path d="M242.6 104.9H239.9L241 98.3998L236.2 104.9H233.3L235.2 94.2998H237.9L236.8 100.8L241.6 94.2998H244.5L242.6 104.9Z" fill="#2B3990"/>
<path d="M254.4 102.1C254.2 103.2 253.8 103.9 253.3 104.4C252.7 104.9 251.9 105.1 250.9 105.1H247.1C246 105.1 245.3 104.9 244.9 104.4C244.5 103.9 244.4 103.2 244.6 102.1L245.5 97.2998C245.7 96.1998 246.1 95.4998 246.6 94.9998C247.2 94.4998 248 94.2998 249 94.2998H252.8C253.9 94.2998 254.6 94.4998 255 94.9998C255.4 95.4998 255.5 96.1998 255.3 97.2998L254.4 102.1ZM252.6 97.1998C252.7 96.5998 252.5 96.2998 251.9 96.2998H249.3C248.7 96.2998 248.3 96.5998 248.2 97.1998L247.3 102C247.2 102.6 247.4 102.9 248 102.9H250.6C251.2 102.9 251.6 102.6 251.7 102L252.6 97.1998Z" fill="#2B3990"/>
<path d="M264.6 104.9H261.9L262.7 100.6H258.9L258.1 104.9H255.4L257.3 94.2998H260L259.3 98.4998H263.1L263.8 94.2998H266.5L264.6 104.9Z" fill="#2B3990"/>
<path d="M268.3 104.9H265.4L271.3 94.2998H274.3L276.4 104.9H273.5L273.2 103H269.4L268.3 104.9ZM270.4 101.1H272.8L272.2 97.5998L270.4 101.1Z" fill="#2B3990"/>
<path d="M279.7 104.5C279.2 104.9 278.7 105.1 278.1 105.1C277.5 105.1 276.9 105.1 276.4 104.9L276.8 102.9H277.5C277.7 102.9 277.9 102.8 278 102.7C278.1 102.6 278.2 102.4 278.3 102.2L280.1 94.2998H288.5L286.6 104.9H283.9L285.4 96.3998H282.2L280.7 102.7C280.6 103.5 280.2 104 279.7 104.5Z" fill="#2B3990"/>
<path d="M297.6 104.9H294.9L296 98.3998L291.2 104.9H288.3L290.2 94.2998H292.9L291.8 100.8L296.6 94.2998H299.5L297.6 104.9Z" fill="#2B3990"/>
<path d="M299.2 102.799C301.7 102.999 303.5 102.999 304.6 102.999C304.8 102.999 305 102.899 305.2 102.799C305.4 102.699 305.5 102.499 305.5 102.199L305.6 101.599C305.7 100.999 305.5 100.699 304.9 100.699H301.3L301.7 98.5994H305C305.6 98.5994 306 98.2994 306.1 97.6994L306.2 97.3994C306.3 96.7994 306.1 96.4994 305.5 96.4994H300.7L301.1 94.3994H306.7C307.7 94.3994 308.4 94.5994 308.8 95.0994C309.2 95.4994 309.3 96.1994 309.1 97.0994C309 97.6994 308.8 98.1994 308.4 98.5994C308.1 98.9994 307.6 99.1994 307.2 99.3994C308 99.5994 308.4 100.199 308.6 100.999C308.6 101.299 308.6 101.699 308.6 102.099V102.299C308.4 103.299 308.1 103.999 307.5 104.499C307 104.999 306.2 105.199 305.2 105.199C303.5 105.199 301.5 105.099 299.2 104.899V102.799Z" fill="#2B3990"/>
<path d="M311 104.9H308.1L314 94.2998H317L319.1 104.9H316.2L315.9 103H312L311 104.9ZM313 101.1H315.4L314.8 97.5998L313 101.1Z" fill="#2B3990"/>
<path d="M323.9 104.9H321.2L322.7 96.3998H319.5L319.9 94.2998H329L328.6 96.3998H325.4L323.9 104.9Z" fill="#2B3990"/>
<path d="M338.2 102.1C338 103.2 337.6 103.9 337.1 104.4C336.5 104.9 335.7 105.1 334.7 105.1H330.9C329.8 105.1 329.1 104.9 328.7 104.4C328.3 103.9 328.2 103.2 328.4 102.1L329.3 97.2998C329.5 96.1998 329.9 95.4998 330.4 94.9998C331 94.4998 331.8 94.2998 332.8 94.2998H336.6C337.7 94.2998 338.4 94.4998 338.8 94.9998C339.2 95.4998 339.3 96.1998 339.1 97.2998L338.2 102.1ZM336.3 97.1998C336.4 96.5998 336.2 96.2998 335.6 96.2998H333C332.4 96.2998 332 96.5998 331.9 97.1998L331 102C330.9 102.6 331.1 102.9 331.7 102.9H334.3C334.9 102.9 335.3 102.6 335.4 102L336.3 97.1998Z" fill="#2B3990"/>
<path d="M341 94.3994H347.3C348.4 94.3994 349.1 94.5994 349.5 95.0994C349.9 95.5994 350 96.2994 349.8 97.3994L349.5 98.8994C349.3 99.9994 348.9 100.699 348.4 101.199C347.8 101.699 347 101.899 346 101.899H342.4L341.9 104.899H339.2L341 94.3994ZM347.1 97.3994C347.2 96.7994 347 96.4994 346.4 96.4994H343.4L342.8 99.7994H345.8C346.4 99.7994 346.8 99.4994 346.9 98.8994L347.1 97.3994Z" fill="#2B3990"/>
<path d="M359.9 102.1C359.7 103.2 359.3 103.9 358.8 104.4C358.2 104.9 357.4 105.1 356.4 105.1H352.6C351.5 105.1 350.8 104.9 350.4 104.4C350 103.9 349.9 103.2 350.1 102.1L351 97.2998C351.2 96.1998 351.6 95.4998 352.1 94.9998C352.7 94.4998 353.5 94.2998 354.5 94.2998H358.3C359.4 94.2998 360.1 94.4998 360.5 94.9998C360.9 95.4998 361 96.1998 360.8 97.2998L359.9 102.1ZM358 97.1998C358.1 96.5998 357.9 96.2998 357.3 96.2998H354.7C354.1 96.2998 353.7 96.5998 353.6 97.1998L352.7 102C352.6 102.6 352.8 102.9 353.4 102.9H356C356.6 102.9 357 102.6 357.1 102L358 97.1998Z" fill="#2B3990"/>
<path d="M362.8 94.3994H368.8C369.8 94.3994 370.5 94.5994 370.9 95.0994C371.3 95.4994 371.4 96.1994 371.2 97.0994C371.1 97.6994 370.9 98.1994 370.5 98.5994C370.2 98.9994 369.8 99.1994 369.4 99.3994C370.2 99.5994 370.6 100.199 370.8 100.999C370.8 101.299 370.8 101.699 370.8 102.099C370.6 103.099 370.3 103.799 369.7 104.299C369.2 104.799 368.4 104.999 367.4 104.999H360.9L362.8 94.3994ZM368.1 101.599C368.2 100.999 368 100.699 367.4 100.699H364.4L364 102.799H367C367.6 102.799 368 102.499 368.1 101.899V101.599ZM368.4 97.3994C368.5 96.7994 368.3 96.4994 367.7 96.4994H365.1L364.7 98.5994H367.3C367.9 98.5994 368.3 98.2994 368.4 97.6994V97.3994Z" fill="#2B3990"/>
<path d="M65.9 87.2998C65.8 87.9998 65.5 88.5998 65.1 88.8998C64.7 89.1998 64.1 89.3998 63.4 89.3998H60.7C60 89.3998 59.4 89.1998 59.2 88.8998C58.9 88.5998 58.8 87.9998 59 87.2998L59.6 83.8998C59.7 83.1998 60 82.5998 60.4 82.2998C60.8 81.9998 61.4 81.7998 62.1 81.7998H64.8001C65.5001 81.7998 66.1001 81.9998 66.3001 82.2998C66.6001 82.5998 66.7 83.1998 66.5 83.8998L65.9 87.2998ZM64.6 83.7998C64.7 83.3998 64.5 83.1998 64.1 83.1998H62.3C61.9 83.1998 61.6 83.3998 61.5 83.7998L60.9 87.1998C60.8 87.5998 61 87.7998 61.4 87.7998H63.2C63.6 87.7998 63.9 87.5998 64 87.1998L64.6 83.7998Z" fill="white"/>
<path d="M71.5003 89.2C70.1003 89.3 69.0003 89.4 67.9003 89.4C67.4003 89.4 67.1003 89.3 66.8003 89C66.6003 88.7 66.5003 88.3 66.6003 87.8L67.0003 85.3C67.1003 84.8 67.3003 84.3 67.7003 84C68.1003 83.7 68.5003 83.5 69.0003 83.5H72.4003L72.1003 84.9H69.3003C69.0003 84.9 68.8003 85 68.8003 85.3L68.4003 87.4C68.4003 87.5 68.4003 87.6 68.5003 87.7C68.6003 87.8 68.6003 87.8 68.7003 87.8C69.3003 87.8 70.3003 87.7 71.6003 87.6L71.5003 89.2Z" fill="white"/>
<path d="M76.8003 85.7006L77.2003 83.6006H79.0003L78.0003 89.3006H76.1003L76.5003 87.2006H74.6003L74.2003 89.3006H72.3003L73.3003 83.6006H75.2003L74.8003 85.7006H76.8003Z" fill="white"/>
<path d="M85.0999 87.7004C84.9999 88.2004 84.7999 88.7004 84.3999 89.0004C83.9999 89.3004 83.5999 89.5004 83.0999 89.5004H80.5999C80.0999 89.5004 79.6999 89.3004 79.3999 89.0004C79.0999 88.7004 79.0999 88.3004 79.1999 87.7004L79.5999 85.2004C79.6999 84.7004 79.8999 84.2004 80.2999 83.9004C80.6999 83.6004 81.0999 83.4004 81.5999 83.4004H84.0999C84.5999 83.4004 84.9999 83.6004 85.2999 83.9004C85.4999 84.2004 85.5999 84.6004 85.4999 85.2004L85.0999 87.7004ZM83.6999 85.4004C83.6999 85.1004 83.5999 85.0004 83.2999 85.0004H81.9999C81.6999 85.0004 81.4999 85.1004 81.4999 85.4004L81.0999 87.5004C80.9999 87.8004 81.1999 87.9004 81.4999 87.9004H82.7999C83.0999 87.9004 83.2999 87.8004 83.2999 87.5004L83.6999 85.4004Z" fill="white"/>
<path d="M89.9003 89.3006H85.8003L86.8003 83.6006H90.5003C91.0003 83.6006 91.3003 83.7006 91.6003 84.0006C91.8003 84.3006 91.9003 84.6006 91.9003 84.9006C91.8003 85.2006 91.7003 85.5006 91.5003 85.8006C91.3003 86.0006 91.1003 86.2006 90.8003 86.2006C91.1003 86.3006 91.4003 86.4006 91.5003 86.7006C91.7003 87.0006 91.7003 87.3006 91.7003 87.7006C91.6003 88.1006 91.4003 88.5006 91.1003 88.8006C90.8003 89.1006 90.3003 89.3006 89.9003 89.3006ZM89.9003 87.5006C89.9003 87.4006 89.9003 87.3006 89.8003 87.2006C89.7003 87.1006 89.7003 87.1006 89.6003 87.1006H88.1003L87.9003 88.0006H89.4003C89.5003 88.0006 89.6003 88.0006 89.7003 87.9006C89.8003 87.8006 89.8003 87.7006 89.9003 87.6006V87.5006ZM90.0003 85.3006C90.0003 85.2006 90.0003 85.1006 89.9003 85.0006C89.8003 84.9006 89.8003 84.9006 89.7003 84.9006H88.5003L88.3003 85.9006H89.5003C89.6003 85.9006 89.7003 85.9006 89.8003 85.8006C89.9003 85.7006 89.9003 85.6006 90.0003 85.5006V85.3006Z" fill="white"/>
<path d="M93.5 83.7C94.8 83.6 96 83.5 97.1 83.5C97.6 83.5 97.9 83.6 98.2 83.9C98.4 84.2 98.5 84.6 98.4 85.1L97.7 89.3H96V88.8C95.6 89 95.3 89.2 94.9 89.3C94.5 89.4 94.2 89.5 94 89.5H93.6C93.1 89.5 92.8 89.4 92.5 89.1C92.3 88.8 92.2 88.4 92.3 87.9L92.4 87.4C92.5 86.9 92.7 86.5 93 86.2C93.3 85.9 93.8 85.8 94.2 85.8H96.4L96.5 85.4C96.5 85.3 96.5 85.2 96.4 85.1C96.3 85 96.3 85 96.2 85C95.7 85 95.2 85 94.7 85.1C94.1 85.1 93.7 85.2 93.3 85.2L93.5 83.7ZM94.7 87.9C95.1 87.9 95.5 87.8 96 87.7L96.1 87.1H94.6C94.5 87.1 94.4 87.1 94.3 87.2C94.2 87.3 94.2 87.4 94.1 87.5V87.6C94.1 87.7 94.1 87.8 94.2 87.9C94.3 88 94.3 88 94.4 88H94.7V87.9Z" fill="white"/>
<path d="M103 85.7006L103.4 83.6006H105.3L104.3 89.3006H102.4L102.8 87.2006H100.9L100.5 89.3006H98.6001L99.6001 83.6006H101.5L101.1 85.7006H103Z" fill="white"/>
<path d="M111.3 87.7004C111.2 88.2004 111 88.7004 110.6 89.0004C110.2 89.3004 109.8 89.5004 109.3 89.5004H106.8C106.3 89.5004 105.9 89.3004 105.6 89.0004C105.3 88.7004 105.3 88.3004 105.4 87.7004L105.8 85.2004C105.9 84.7004 106.1 84.2004 106.5 83.9004C106.9 83.6004 107.3 83.4004 107.8 83.4004H110.3C110.8 83.4004 111.2 83.6004 111.5 83.9004C111.7 84.2004 111.8 84.6004 111.7 85.2004L111.3 87.7004ZM109.8 85.4004C109.8 85.1004 109.7 85.0004 109.4 85.0004H108.1C107.8 85.0004 107.6 85.1004 107.6 85.4004L107.2 87.5004C107.1 87.8004 107.3 87.9004 107.6 87.9004H108.9C109.2 87.9004 109.4 87.8004 109.4 87.5004L109.8 85.4004Z" fill="white"/>
<path d="M119.2 89.3006H115.1L116.1 83.6006H119.8C120.3 83.6006 120.6 83.7006 120.9 84.0006C121.1 84.3006 121.2 84.6006 121.2 84.9006C121.1 85.2006 121 85.5006 120.8 85.8006C120.6 86.0006 120.4 86.2006 120.1 86.2006C120.4 86.3006 120.7 86.4006 120.8 86.7006C121 87.0006 121 87.3006 121 87.7006C120.9 88.1006 120.7 88.5006 120.4 88.8006C120.1 89.1006 119.7 89.3006 119.2 89.3006ZM119.3 87.5006C119.3 87.4006 119.3 87.3006 119.2 87.2006C119.1 87.1006 119.1 87.1006 119 87.1006H117.5L117.3 88.0006H118.8C118.9 88.0006 119 88.0006 119.1 87.9006C119.2 87.8006 119.2 87.7006 119.3 87.6006V87.5006ZM119.4 85.3006C119.4 85.2006 119.4 85.1006 119.3 85.0006C119.2 84.9006 119.2 84.9006 119.1 84.9006H117.9L117.7 85.9006H118.9C119 85.9006 119.1 85.9006 119.2 85.8006C119.3 85.7006 119.3 85.6006 119.4 85.5006V85.3006Z" fill="white"/>
<path d="M126 89.2998L127 83.4998L125.7 83.8998L125.4 82.6998L127.5 81.7998H129.2L127.9 89.2998H126Z" fill="white"/>
<path d="M129.6 87.7002C131 87.8002 132.1 87.9002 132.7 87.9002C132.9 87.9002 133 87.9002 133.1 87.8002C133.2 87.7002 133.3 87.6002 133.3 87.4002L133.5 86.4002C132.8 86.5002 132.2 86.6002 131.6 86.6002H130.9C130.4 86.6002 130.1 86.5002 129.8 86.2002C129.6 85.9002 129.5 85.5002 129.6 85.0002L129.8 83.6002C129.9 83.0002 130.2 82.5002 130.5 82.2002C130.9 81.9002 131.4 81.7002 132.1 81.7002H134.1C134.8 81.7002 135.3 81.9002 135.6 82.2002C135.9 82.5002 135.9 83.0002 135.8 83.6002L135.1 87.3002C135 88.0002 134.7 88.5002 134.3 88.8002C133.9 89.1002 133.4 89.3002 132.7 89.3002C131.7 89.3002 130.6 89.2002 129.2 89.1002L129.6 87.7002ZM132.4 85.1002C132.8 85.1002 133.2 85.1002 133.7 85.0002L133.9 83.8002C134 83.4002 133.8 83.2002 133.4 83.2002H132.4C132 83.2002 131.7 83.4002 131.6 83.8002L131.4 84.7002C131.4 84.8002 131.4 84.9002 131.5 85.0002C131.6 85.1002 131.6 85.1002 131.7 85.1002H132.4Z" fill="white"/>
<path d="M139.4 89.4006C138.2 89.4006 136.9 89.3006 135.5 89.2006L135.8 87.8006C137.4 87.9006 138.5 88.0006 139.3 88.0006C139.5 88.0006 139.6 88.0006 139.7 87.9006C139.8 87.8006 139.9 87.7006 139.9 87.5006L140 87.1006C140.1 86.7006 139.9 86.5006 139.5 86.5006H137.3L137.6 85.0006H139.6C140 85.0006 140.3 84.8006 140.4 84.4006V84.2006C140.5 83.8006 140.3 83.6006 139.9 83.6006H136.8L137.1 82.1006H140.7C141.4 82.1006 141.9 82.3006 142.2 82.6006C142.5 82.9006 142.5 83.4006 142.4 84.0006C142.3 84.4006 142.2 84.8006 141.9 85.0006C141.7 85.3006 141.4 85.5006 141 85.6006C141.5 85.8006 141.9 86.1006 142 86.8006C142 87.0006 142 87.3006 142 87.6006V87.7006C141.9 88.4006 141.6 88.9006 141.2 89.2006C140.7 89.2006 140.1 89.4006 139.4 89.4006Z" fill="white"/>
<path d="M148.7 84.2C148.6 84.8 148.2 85.3 147.7 85.8C147.5 85.9 147.3 86.1 147.1 86.2L144.5 87.9H148.1L147.8 89.4H142L142.4 87.4L146.7 84.6L146.8 84.1C146.9 83.7 146.7 83.5 146.3 83.5H143.3L143.6 82H147C147.7 82 148.3 82.2 148.5 82.5C148.8 82.8 148.9 83.4 148.7 84.1V84.2Z" fill="white"/>
<path d="M157.4 83.6L157.1 85H154.4L153.7 89.2H151.8L152.8 83.5H157.4V83.6Z" fill="white"/>
<path d="M156.4 87.7002H158.3L158 89.3002H156.1L156.4 87.7002Z" fill="white"/>
<path d="M82.8001 47.2002H58.2001L57.1001 53.1002H64.7001L60.5001 76.8002H78.7001C81.5001 76.8002 83.6001 76.2002 85.1001 74.9002C86.6001 73.6002 87.6001 71.6002 88.1001 68.8002C88.3001 67.6002 88.3001 66.6002 88.2001 65.8002C87.8001 63.4002 86.5001 61.8002 84.3001 61.2002C85.4001 60.8002 86.5001 60.0002 87.4001 59.0002C88.3001 57.9002 88.9001 56.6002 89.2001 54.9002C89.7001 52.3002 89.3001 50.4002 88.3001 49.2002C87.5001 47.8002 85.6001 47.2002 82.8001 47.2002ZM80.9001 67.5002L80.8001 68.3002C80.5001 70.0002 79.5001 70.8002 77.8001 70.8002H69.3001L70.3001 64.9002H78.8001C80.5001 64.9002 81.2001 65.8002 80.9001 67.5002ZM81.7001 55.6002L81.6001 56.4002C81.3001 58.1002 80.3001 58.9002 78.6001 58.9002H71.4001L72.4001 53.0002H79.6001C81.3001 53.1002 82.0001 53.9002 81.7001 55.6002Z" fill="white"/>
<path d="M114.2 46.7002H103.6C100.6 46.7002 98.4003 47.4002 96.8003 48.7002C95.2003 50.0002 94.2003 52.2002 93.7003 55.2002L91.3003 68.8002C90.8003 71.8002 91.1003 73.9002 92.2003 75.3002C93.3003 76.7002 95.3003 77.3002 98.3003 77.3002H108.9C111.9 77.3002 114.1 76.6002 115.7 75.3002C117.3 74.0002 118.3 71.8002 118.9 68.8002L121.3 55.2002C121.8 52.2002 121.5 50.1002 120.4 48.7002C119.2 47.4002 117.2 46.7002 114.2 46.7002ZM113.6 55.2002L111.2 68.8002C110.9 70.5002 109.9 71.3002 108.2 71.3002H101C99.3003 71.3002 98.6003 70.5002 98.9003 68.8002L101.3 55.2002C101.6 53.5002 102.6 52.7002 104.3 52.7002H111.5C113.2 52.7002 113.9 53.5002 113.6 55.2002Z" fill="white"/>
<path d="M144.6 47.2002L131.3 65.4002L134.5 47.2002H126.8L121.6 76.8002H129.7L143 58.6002L139.8 76.8002H147.5L152.7 47.2002H144.6Z" fill="white"/>
<path d="M181.7 49.2002C180.6 47.9002 178.6 47.2002 175.6 47.2002H157.8L152.6 76.8002H160.2L161.7 68.3002H171.9C174.9 68.3002 177.1 67.6002 178.7 66.3002C180.3 65.0002 181.3 62.8002 181.9 59.8002L182.6 55.6002C183 52.7002 182.8 50.5002 181.7 49.2002ZM174.9 55.6002L174.2 59.8002C173.9 61.5002 172.9 62.3002 171.2 62.3002H162.7L164.3 53.0002H172.8C174.5 53.1002 175.2 53.9002 174.9 55.6002Z" fill="white"/>
</svg>
